<?xml version="1.0" encoding="utf-8" standalone="no"?>
<!DOCTYPE svg PUBLIC "-//W3C//DTD SVG 1.1//EN"
  "http://www.w3.org/Graphics/SVG/1.1/DTD/svg11.dtd">
<!-- Created with matplotlib (https://matplotlib.org/) -->
<svg height="520.528437pt" version="1.1" viewBox="0 0 735.935 520.528437" width="735.935pt" xmlns="http://www.w3.org/2000/svg" xmlns:xlink="http://www.w3.org/1999/xlink">
 <metadata>
  <rdf:RDF xmlns:cc="http://creativecommons.org/ns#" xmlns:dc="http://purl.org/dc/elements/1.1/" xmlns:rdf="http://www.w3.org/1999/02/22-rdf-syntax-ns#">
   <cc:Work>
    <dc:type rdf:resource="http://purl.org/dc/dcmitype/StillImage"/>
    <dc:date>2022-05-06T22:40:05.504674</dc:date>
    <dc:format>image/svg+xml</dc:format>
    <dc:creator>
     <cc:Agent>
      <dc:title>Matplotlib v3.3.4, https://matplotlib.org/</dc:title>
     </cc:Agent>
    </dc:creator>
   </cc:Work>
  </rdf:RDF>
 </metadata>
 <defs>
  <style type="text/css">*{stroke-linecap:butt;stroke-linejoin:round;}</style>
 </defs>
 <g id="figure_1">
  <g id="patch_1">
   <path d="M 0 520.528437 
L 735.935 520.528437 
L 735.935 0 
L 0 0 
z
" style="fill:none;"/>
  </g>
  <g id="axes_1">
   <g id="patch_2">
    <path d="M 59.135 387.72 
L 728.735 387.72 
L 728.735 7.2 
L 59.135 7.2 
z
" style="fill:#ffffff;"/>
   </g>
   <g id="patch_3">
    <path clip-path="url(#pd6d642a842)" d="M 89.571364 387.72 
L 99.15762 387.72 
L 99.15762 385.811771 
L 89.571364 385.811771 
z
" style="fill:#1f77b4;"/>
   </g>
   <g id="patch_4">
    <path clip-path="url(#pd6d642a842)" d="M 101.554184 387.72 
L 111.14044 387.72 
L 111.14044 380.795854 
L 101.554184 380.795854 
z
" style="fill:#1f77b4;"/>
   </g>
   <g id="patch_5">
    <path clip-path="url(#pd6d642a842)" d="M 113.537004 387.72 
L 123.123261 387.72 
L 123.123261 380.904895 
L 113.537004 380.904895 
z
" style="fill:#1f77b4;"/>
   </g>
   <g id="patch_6">
    <path clip-path="url(#pd6d642a842)" d="M 125.519825 387.72 
L 135.106081 387.72 
L 135.106081 379.705437 
L 125.519825 379.705437 
z
" style="fill:#1f77b4;"/>
   </g>
   <g id="patch_7">
    <path clip-path="url(#pd6d642a842)" d="M 137.502645 387.72 
L 147.088901 387.72 
L 147.088901 379.92352 
L 137.502645 379.92352 
z
" style="fill:#1f77b4;"/>
   </g>
   <g id="patch_8">
    <path clip-path="url(#pd6d642a842)" d="M 149.485465 387.72 
L 159.071722 387.72 
L 159.071722 378.069812 
L 149.485465 378.069812 
z
" style="fill:#1f77b4;"/>
   </g>
   <g id="patch_9">
    <path clip-path="url(#pd6d642a842)" d="M 161.468286 387.72 
L 171.054542 387.72 
L 171.054542 377.088437 
L 161.468286 377.088437 
z
" style="fill:#1f77b4;"/>
   </g>
   <g id="patch_10">
    <path clip-path="url(#pd6d642a842)" d="M 173.451106 387.72 
L 183.037362 387.72 
L 183.037362 377.688166 
L 173.451106 377.688166 
z
" style="fill:#1f77b4;"/>
   </g>
   <g id="patch_11">
    <path clip-path="url(#pd6d642a842)" d="M 185.433926 387.72 
L 195.020183 387.72 
L 195.020183 375.452812 
L 185.433926 375.452812 
z
" style="fill:#1f77b4;"/>
   </g>
   <g id="patch_12">
    <path clip-path="url(#pd6d642a842)" d="M 197.416747 387.72 
L 207.003003 387.72 
L 207.003003 375.34377 
L 197.416747 375.34377 
z
" style="fill:#1f77b4;"/>
   </g>
   <g id="patch_13">
    <path clip-path="url(#pd6d642a842)" d="M 209.399567 387.72 
L 218.985823 387.72 
L 218.985823 375.071166 
L 209.399567 375.071166 
z
" style="fill:#1f77b4;"/>
   </g>
   <g id="patch_14">
    <path clip-path="url(#pd6d642a842)" d="M 221.382387 387.72 
L 230.968644 387.72 
L 230.968644 374.962124 
L 221.382387 374.962124 
z
" style="fill:#1f77b4;"/>
   </g>
   <g id="patch_15">
    <path clip-path="url(#pd6d642a842)" d="M 233.365208 387.72 
L 242.951464 387.72 
L 242.951464 374.907603 
L 233.365208 374.907603 
z
" style="fill:#1f77b4;"/>
   </g>
   <g id="patch_16">
    <path clip-path="url(#pd6d642a842)" d="M 245.348028 387.72 
L 254.934284 387.72 
L 254.934284 376.161583 
L 245.348028 376.161583 
z
" style="fill:#1f77b4;"/>
   </g>
   <g id="patch_17">
    <path clip-path="url(#pd6d642a842)" d="M 257.330848 387.72 
L 266.917105 387.72 
L 266.917105 370.709499 
L 257.330848 370.709499 
z
" style="fill:#1f77b4;"/>
   </g>
   <g id="patch_18">
    <path clip-path="url(#pd6d642a842)" d="M 269.313669 387.72 
L 278.899925 387.72 
L 278.899925 370.327853 
L 269.313669 370.327853 
z
" style="fill:#1f77b4;"/>
   </g>
   <g id="patch_19">
    <path clip-path="url(#pd6d642a842)" d="M 281.296489 387.72 
L 290.882745 387.72 
L 290.882745 369.400999 
L 281.296489 369.400999 
z
" style="fill:#1f77b4;"/>
   </g>
   <g id="patch_20">
    <path clip-path="url(#pd6d642a842)" d="M 293.279309 387.72 
L 302.865565 387.72 
L 302.865565 368.419624 
L 293.279309 368.419624 
z
" style="fill:#1f77b4;"/>
   </g>
   <g id="patch_21">
    <path clip-path="url(#pd6d642a842)" d="M 305.26213 387.72 
L 314.848386 387.72 
L 314.848386 366.620436 
L 305.26213 366.620436 
z
" style="fill:#1f77b4;"/>
   </g>
   <g id="patch_22">
    <path clip-path="url(#pd6d642a842)" d="M 317.24495 387.72 
L 326.831206 387.72 
L 326.831206 366.83852 
L 317.24495 366.83852 
z
" style="fill:#1f77b4;"/>
   </g>
   <g id="patch_23">
    <path clip-path="url(#pd6d642a842)" d="M 329.22777 387.72 
L 338.814026 387.72 
L 338.814026 365.202895 
L 329.22777 365.202895 
z
" style="fill:#1f77b4;"/>
   </g>
   <g id="patch_24">
    <path clip-path="url(#pd6d642a842)" d="M 341.210591 387.72 
L 350.796847 387.72 
L 350.796847 360.241498 
L 341.210591 360.241498 
z
" style="fill:#1f77b4;"/>
   </g>
   <g id="patch_25">
    <path clip-path="url(#pd6d642a842)" d="M 353.193411 387.72 
L 362.779667 387.72 
L 362.779667 359.423686 
L 353.193411 359.423686 
z
" style="fill:#1f77b4;"/>
   </g>
   <g id="patch_26">
    <path clip-path="url(#pd6d642a842)" d="M 365.176231 387.72 
L 374.762487 387.72 
L 374.762487 360.077936 
L 365.176231 360.077936 
z
" style="fill:#1f77b4;"/>
   </g>
   <g id="patch_27">
    <path clip-path="url(#pd6d642a842)" d="M 377.159052 387.72 
L 386.745308 387.72 
L 386.745308 356.588602 
L 377.159052 356.588602 
z
" style="fill:#1f77b4;"/>
   </g>
   <g id="patch_28">
    <path clip-path="url(#pd6d642a842)" d="M 389.141872 387.72 
L 398.728128 387.72 
L 398.728128 350.046102 
L 389.141872 350.046102 
z
" style="fill:#1f77b4;"/>
   </g>
   <g id="patch_29">
    <path clip-path="url(#pd6d642a842)" d="M 401.124692 387.72 
L 410.710948 387.72 
L 410.710948 343.885247 
L 401.124692 343.885247 
z
" style="fill:#1f77b4;"/>
   </g>
   <g id="patch_30">
    <path clip-path="url(#pd6d642a842)" d="M 413.107513 387.72 
L 422.693769 387.72 
L 422.693769 339.196456 
L 413.107513 339.196456 
z
" style="fill:#1f77b4;"/>
   </g>
   <g id="patch_31">
    <path clip-path="url(#pd6d642a842)" d="M 425.090333 387.72 
L 434.676589 387.72 
L 434.676589 338.651247 
L 425.090333 338.651247 
z
" style="fill:#1f77b4;"/>
   </g>
   <g id="patch_32">
    <path clip-path="url(#pd6d642a842)" d="M 437.073153 387.72 
L 446.659409 387.72 
L 446.659409 339.850706 
L 437.073153 339.850706 
z
" style="fill:#1f77b4;"/>
   </g>
   <g id="patch_33">
    <path clip-path="url(#pd6d642a842)" d="M 449.055974 387.72 
L 458.64223 387.72 
L 458.64223 337.233705 
L 449.055974 337.233705 
z
" style="fill:#1f77b4;"/>
   </g>
   <g id="patch_34">
    <path clip-path="url(#pd6d642a842)" d="M 461.038794 387.72 
L 470.62505 387.72 
L 470.62505 340.995643 
L 461.038794 340.995643 
z
" style="fill:#1f77b4;"/>
   </g>
   <g id="patch_35">
    <path clip-path="url(#pd6d642a842)" d="M 473.021614 387.72 
L 482.60787 387.72 
L 482.60787 338.596726 
L 473.021614 338.596726 
z
" style="fill:#1f77b4;"/>
   </g>
   <g id="patch_36">
    <path clip-path="url(#pd6d642a842)" d="M 485.004435 387.72 
L 494.590691 387.72 
L 494.590691 331.781622 
L 485.004435 331.781622 
z
" style="fill:#1f77b4;"/>
   </g>
   <g id="patch_37">
    <path clip-path="url(#pd6d642a842)" d="M 496.987255 387.72 
L 506.573511 387.72 
L 506.573511 324.421309 
L 496.987255 324.421309 
z
" style="fill:#1f77b4;"/>
   </g>
   <g id="patch_38">
    <path clip-path="url(#pd6d642a842)" d="M 508.970075 387.72 
L 518.556331 387.72 
L 518.556331 324.366788 
L 508.970075 324.366788 
z
" style="fill:#1f77b4;"/>
   </g>
   <g id="patch_39">
    <path clip-path="url(#pd6d642a842)" d="M 520.952895 387.72 
L 530.539152 387.72 
L 530.539152 320.059642 
L 520.952895 320.059642 
z
" style="fill:#1f77b4;"/>
   </g>
   <g id="patch_40">
    <path clip-path="url(#pd6d642a842)" d="M 532.935716 387.72 
L 542.521972 387.72 
L 542.521972 307.083683 
L 532.935716 307.083683 
z
" style="fill:#1f77b4;"/>
   </g>
   <g id="patch_41">
    <path clip-path="url(#pd6d642a842)" d="M 544.918536 387.72 
L 554.504792 387.72 
L 554.504792 299.123641 
L 544.918536 299.123641 
z
" style="fill:#1f77b4;"/>
   </g>
   <g id="patch_42">
    <path clip-path="url(#pd6d642a842)" d="M 556.901356 387.72 
L 566.487613 387.72 
L 566.487613 297.869662 
L 556.901356 297.869662 
z
" style="fill:#1f77b4;"/>
   </g>
   <g id="patch_43">
    <path clip-path="url(#pd6d642a842)" d="M 568.884177 387.72 
L 578.470433 387.72 
L 578.470433 291.708807 
L 568.884177 291.708807 
z
" style="fill:#1f77b4;"/>
   </g>
   <g id="patch_44">
    <path clip-path="url(#pd6d642a842)" d="M 580.866997 387.72 
L 590.453253 387.72 
L 590.453253 285.057265 
L 580.866997 285.057265 
z
" style="fill:#1f77b4;"/>
   </g>
   <g id="patch_45">
    <path clip-path="url(#pd6d642a842)" d="M 592.849817 387.72 
L 602.436074 387.72 
L 602.436074 281.676973 
L 592.849817 281.676973 
z
" style="fill:#1f77b4;"/>
   </g>
   <g id="patch_46">
    <path clip-path="url(#pd6d642a842)" d="M 604.832638 387.72 
L 614.418894 387.72 
L 614.418894 285.766036 
L 604.832638 285.766036 
z
" style="fill:#1f77b4;"/>
   </g>
   <g id="patch_47">
    <path clip-path="url(#pd6d642a842)" d="M 616.815458 387.72 
L 626.401714 387.72 
L 626.401714 241.658679 
L 616.815458 241.658679 
z
" style="fill:#1f77b4;"/>
   </g>
   <g id="patch_48">
    <path clip-path="url(#pd6d642a842)" d="M 628.798278 387.72 
L 638.384535 387.72 
L 638.384535 228.192032 
L 628.798278 228.192032 
z
" style="fill:#1f77b4;"/>
   </g>
   <g id="patch_49">
    <path clip-path="url(#pd6d642a842)" d="M 640.781099 387.72 
L 650.367355 387.72 
L 650.367355 224.648178 
L 640.781099 224.648178 
z
" style="fill:#1f77b4;"/>
   </g>
   <g id="patch_50">
    <path clip-path="url(#pd6d642a842)" d="M 652.763919 387.72 
L 662.350175 387.72 
L 662.350175 222.031178 
L 652.763919 222.031178 
z
" style="fill:#1f77b4;"/>
   </g>
   <g id="patch_51">
    <path clip-path="url(#pd6d642a842)" d="M 664.746739 387.72 
L 674.332996 387.72 
L 674.332996 206.710823 
L 664.746739 206.710823 
z
" style="fill:#1f77b4;"/>
   </g>
   <g id="patch_52">
    <path clip-path="url(#pd6d642a842)" d="M 676.72956 387.72 
L 686.315816 387.72 
L 686.315816 202.240114 
L 676.72956 202.240114 
z
" style="fill:#1f77b4;"/>
   </g>
   <g id="patch_53">
    <path clip-path="url(#pd6d642a842)" d="M 688.71238 387.72 
L 698.298636 387.72 
L 698.298636 25.32 
L 688.71238 25.32 
z
" style="fill:#1f77b4;"/>
   </g>
   <g id="patch_54">
    <path clip-path="url(#pd6d642a842)" d="M 89.571364 387.72 
L 99.15762 387.72 
L 99.15762 387.392875 
L 89.571364 387.392875 
z
" style="fill:#ff7f0e;"/>
   </g>
   <g id="patch_55">
    <path clip-path="url(#pd6d642a842)" d="M 101.554184 387.72 
L 111.14044 387.72 
L 111.14044 386.520542 
L 101.554184 386.520542 
z
" style="fill:#ff7f0e;"/>
   </g>
   <g id="patch_56">
    <path clip-path="url(#pd6d642a842)" d="M 113.537004 387.72 
L 123.123261 387.72 
L 123.123261 386.356979 
L 113.537004 386.356979 
z
" style="fill:#ff7f0e;"/>
   </g>
   <g id="patch_57">
    <path clip-path="url(#pd6d642a842)" d="M 125.519825 387.72 
L 135.106081 387.72 
L 135.106081 385.648208 
L 125.519825 385.648208 
z
" style="fill:#ff7f0e;"/>
   </g>
   <g id="patch_58">
    <path clip-path="url(#pd6d642a842)" d="M 137.502645 387.72 
L 147.088901 387.72 
L 147.088901 384.884917 
L 137.502645 384.884917 
z
" style="fill:#ff7f0e;"/>
   </g>
   <g id="patch_59">
    <path clip-path="url(#pd6d642a842)" d="M 149.485465 387.72 
L 159.071722 387.72 
L 159.071722 385.75725 
L 149.485465 385.75725 
z
" style="fill:#ff7f0e;"/>
   </g>
   <g id="patch_60">
    <path clip-path="url(#pd6d642a842)" d="M 161.468286 387.72 
L 171.054542 387.72 
L 171.054542 385.975333 
L 161.468286 385.975333 
z
" style="fill:#ff7f0e;"/>
   </g>
   <g id="patch_61">
    <path clip-path="url(#pd6d642a842)" d="M 173.451106 387.72 
L 183.037362 387.72 
L 183.037362 385.048479 
L 173.451106 385.048479 
z
" style="fill:#ff7f0e;"/>
   </g>
   <g id="patch_62">
    <path clip-path="url(#pd6d642a842)" d="M 185.433926 387.72 
L 195.020183 387.72 
L 195.020183 386.084375 
L 185.433926 386.084375 
z
" style="fill:#ff7f0e;"/>
   </g>
   <g id="patch_63">
    <path clip-path="url(#pd6d642a842)" d="M 197.416747 387.72 
L 207.003003 387.72 
L 207.003003 385.866292 
L 197.416747 385.866292 
z
" style="fill:#ff7f0e;"/>
   </g>
   <g id="patch_64">
    <path clip-path="url(#pd6d642a842)" d="M 209.399567 387.72 
L 218.985823 387.72 
L 218.985823 386.084375 
L 209.399567 386.084375 
z
" style="fill:#ff7f0e;"/>
   </g>
   <g id="patch_65">
    <path clip-path="url(#pd6d642a842)" d="M 221.382387 387.72 
L 230.968644 387.72 
L 230.968644 385.866292 
L 221.382387 385.866292 
z
" style="fill:#ff7f0e;"/>
   </g>
   <g id="patch_66">
    <path clip-path="url(#pd6d642a842)" d="M 233.365208 387.72 
L 242.951464 387.72 
L 242.951464 385.430125 
L 233.365208 385.430125 
z
" style="fill:#ff7f0e;"/>
   </g>
   <g id="patch_67">
    <path clip-path="url(#pd6d642a842)" d="M 245.348028 387.72 
L 254.934284 387.72 
L 254.934284 382.976687 
L 245.348028 382.976687 
z
" style="fill:#ff7f0e;"/>
   </g>
   <g id="patch_68">
    <path clip-path="url(#pd6d642a842)" d="M 257.330848 387.72 
L 266.917105 387.72 
L 266.917105 383.685458 
L 257.330848 383.685458 
z
" style="fill:#ff7f0e;"/>
   </g>
   <g id="patch_69">
    <path clip-path="url(#pd6d642a842)" d="M 269.313669 387.72 
L 278.899925 387.72 
L 278.899925 383.358333 
L 269.313669 383.358333 
z
" style="fill:#ff7f0e;"/>
   </g>
   <g id="patch_70">
    <path clip-path="url(#pd6d642a842)" d="M 281.296489 387.72 
L 290.882745 387.72 
L 290.882745 383.576416 
L 281.296489 383.576416 
z
" style="fill:#ff7f0e;"/>
   </g>
   <g id="patch_71">
    <path clip-path="url(#pd6d642a842)" d="M 293.279309 387.72 
L 302.865565 387.72 
L 302.865565 383.303812 
L 293.279309 383.303812 
z
" style="fill:#ff7f0e;"/>
   </g>
   <g id="patch_72">
    <path clip-path="url(#pd6d642a842)" d="M 305.26213 387.72 
L 314.848386 387.72 
L 314.848386 384.939437 
L 305.26213 384.939437 
z
" style="fill:#ff7f0e;"/>
   </g>
   <g id="patch_73">
    <path clip-path="url(#pd6d642a842)" d="M 317.24495 387.72 
L 326.831206 387.72 
L 326.831206 380.850375 
L 317.24495 380.850375 
z
" style="fill:#ff7f0e;"/>
   </g>
   <g id="patch_74">
    <path clip-path="url(#pd6d642a842)" d="M 329.22777 387.72 
L 338.814026 387.72 
L 338.814026 380.795854 
L 329.22777 380.795854 
z
" style="fill:#ff7f0e;"/>
   </g>
   <g id="patch_75">
    <path clip-path="url(#pd6d642a842)" d="M 341.210591 387.72 
L 350.796847 387.72 
L 350.796847 383.085729 
L 341.210591 383.085729 
z
" style="fill:#ff7f0e;"/>
   </g>
   <g id="patch_76">
    <path clip-path="url(#pd6d642a842)" d="M 353.193411 387.72 
L 362.779667 387.72 
L 362.779667 383.249291 
L 353.193411 383.249291 
z
" style="fill:#ff7f0e;"/>
   </g>
   <g id="patch_77">
    <path clip-path="url(#pd6d642a842)" d="M 365.176231 387.72 
L 374.762487 387.72 
L 374.762487 381.668187 
L 365.176231 381.668187 
z
" style="fill:#ff7f0e;"/>
   </g>
   <g id="patch_78">
    <path clip-path="url(#pd6d642a842)" d="M 377.159052 387.72 
L 386.745308 387.72 
L 386.745308 382.104354 
L 377.159052 382.104354 
z
" style="fill:#ff7f0e;"/>
   </g>
   <g id="patch_79">
    <path clip-path="url(#pd6d642a842)" d="M 389.141872 387.72 
L 398.728128 387.72 
L 398.728128 379.92352 
L 389.141872 379.92352 
z
" style="fill:#ff7f0e;"/>
   </g>
   <g id="patch_80">
    <path clip-path="url(#pd6d642a842)" d="M 401.124692 387.72 
L 410.710948 387.72 
L 410.710948 379.705437 
L 401.124692 379.705437 
z
" style="fill:#ff7f0e;"/>
   </g>
   <g id="patch_81">
    <path clip-path="url(#pd6d642a842)" d="M 413.107513 387.72 
L 422.693769 387.72 
L 422.693769 379.323791 
L 413.107513 379.323791 
z
" style="fill:#ff7f0e;"/>
   </g>
   <g id="patch_82">
    <path clip-path="url(#pd6d642a842)" d="M 425.090333 387.72 
L 434.676589 387.72 
L 434.676589 379.705437 
L 425.090333 379.705437 
z
" style="fill:#ff7f0e;"/>
   </g>
   <g id="patch_83">
    <path clip-path="url(#pd6d642a842)" d="M 437.073153 387.72 
L 446.659409 387.72 
L 446.659409 376.815833 
L 437.073153 376.815833 
z
" style="fill:#ff7f0e;"/>
   </g>
   <g id="patch_84">
    <path clip-path="url(#pd6d642a842)" d="M 449.055974 387.72 
L 458.64223 387.72 
L 458.64223 378.396937 
L 449.055974 378.396937 
z
" style="fill:#ff7f0e;"/>
   </g>
   <g id="patch_85">
    <path clip-path="url(#pd6d642a842)" d="M 461.038794 387.72 
L 470.62505 387.72 
L 470.62505 374.144312 
L 461.038794 374.144312 
z
" style="fill:#ff7f0e;"/>
   </g>
   <g id="patch_86">
    <path clip-path="url(#pd6d642a842)" d="M 473.021614 387.72 
L 482.60787 387.72 
L 482.60787 375.398291 
L 473.021614 375.398291 
z
" style="fill:#ff7f0e;"/>
   </g>
   <g id="patch_87">
    <path clip-path="url(#pd6d642a842)" d="M 485.004435 387.72 
L 494.590691 387.72 
L 494.590691 373.38102 
L 485.004435 373.38102 
z
" style="fill:#ff7f0e;"/>
   </g>
   <g id="patch_88">
    <path clip-path="url(#pd6d642a842)" d="M 496.987255 387.72 
L 506.573511 387.72 
L 506.573511 374.580478 
L 496.987255 374.580478 
z
" style="fill:#ff7f0e;"/>
   </g>
   <g id="patch_89">
    <path clip-path="url(#pd6d642a842)" d="M 508.970075 387.72 
L 518.556331 387.72 
L 518.556331 372.399645 
L 508.970075 372.399645 
z
" style="fill:#ff7f0e;"/>
   </g>
   <g id="patch_90">
    <path clip-path="url(#pd6d642a842)" d="M 520.952895 387.72 
L 530.539152 387.72 
L 530.539152 372.290603 
L 520.952895 372.290603 
z
" style="fill:#ff7f0e;"/>
   </g>
   <g id="patch_91">
    <path clip-path="url(#pd6d642a842)" d="M 532.935716 387.72 
L 542.521972 387.72 
L 542.521972 371.908957 
L 532.935716 371.908957 
z
" style="fill:#ff7f0e;"/>
   </g>
   <g id="patch_92">
    <path clip-path="url(#pd6d642a842)" d="M 544.918536 387.72 
L 554.504792 387.72 
L 554.504792 369.45552 
L 544.918536 369.45552 
z
" style="fill:#ff7f0e;"/>
   </g>
   <g id="patch_93">
    <path clip-path="url(#pd6d642a842)" d="M 556.901356 387.72 
L 566.487613 387.72 
L 566.487613 361.768082 
L 556.901356 361.768082 
z
" style="fill:#ff7f0e;"/>
   </g>
   <g id="patch_94">
    <path clip-path="url(#pd6d642a842)" d="M 568.884177 387.72 
L 578.470433 387.72 
L 578.470433 363.022061 
L 568.884177 363.022061 
z
" style="fill:#ff7f0e;"/>
   </g>
   <g id="patch_95">
    <path clip-path="url(#pd6d642a842)" d="M 580.866997 387.72 
L 590.453253 387.72 
L 590.453253 366.783999 
L 580.866997 366.783999 
z
" style="fill:#ff7f0e;"/>
   </g>
   <g id="patch_96">
    <path clip-path="url(#pd6d642a842)" d="M 592.849817 387.72 
L 602.436074 387.72 
L 602.436074 365.58454 
L 592.849817 365.58454 
z
" style="fill:#ff7f0e;"/>
   </g>
   <g id="patch_97">
    <path clip-path="url(#pd6d642a842)" d="M 604.832638 387.72 
L 614.418894 387.72 
L 614.418894 357.188332 
L 604.832638 357.188332 
z
" style="fill:#ff7f0e;"/>
   </g>
   <g id="patch_98">
    <path clip-path="url(#pd6d642a842)" d="M 616.815458 387.72 
L 626.401714 387.72 
L 626.401714 349.664456 
L 616.815458 349.664456 
z
" style="fill:#ff7f0e;"/>
   </g>
   <g id="patch_99">
    <path clip-path="url(#pd6d642a842)" d="M 628.798278 387.72 
L 638.384535 387.72 
L 638.384535 350.918435 
L 628.798278 350.918435 
z
" style="fill:#ff7f0e;"/>
   </g>
   <g id="patch_100">
    <path clip-path="url(#pd6d642a842)" d="M 640.781099 387.72 
L 650.367355 387.72 
L 650.367355 352.281456 
L 640.781099 352.281456 
z
" style="fill:#ff7f0e;"/>
   </g>
   <g id="patch_101">
    <path clip-path="url(#pd6d642a842)" d="M 652.763919 387.72 
L 662.350175 387.72 
L 662.350175 352.935706 
L 652.763919 352.935706 
z
" style="fill:#ff7f0e;"/>
   </g>
   <g id="patch_102">
    <path clip-path="url(#pd6d642a842)" d="M 664.746739 387.72 
L 674.332996 387.72 
L 674.332996 347.919789 
L 664.746739 347.919789 
z
" style="fill:#ff7f0e;"/>
   </g>
   <g id="patch_103">
    <path clip-path="url(#pd6d642a842)" d="M 676.72956 387.72 
L 686.315816 387.72 
L 686.315816 341.322768 
L 676.72956 341.322768 
z
" style="fill:#ff7f0e;"/>
   </g>
   <g id="patch_104">
    <path clip-path="url(#pd6d642a842)" d="M 688.71238 387.72 
L 698.298636 387.72 
L 698.298636 300.759266 
L 688.71238 300.759266 
z
" style="fill:#ff7f0e;"/>
   </g>
   <g id="matplotlib.axis_1">
    <g id="xtick_1">
     <g id="line2d_1">
      <defs>
       <path d="M 0 0 
L 0 3.5 
" id="mb795c20b5c" style="stroke:#000000;stroke-width:0.8;"/>
      </defs>
      <g>
       <use style="stroke:#000000;stroke-width:0.8;" x="94.364492" xlink:href="#mb795c20b5c" y="387.72"/>
      </g>
     </g>
     <g id="text_1">
      <!-- District of Columbia -->
      <g transform="translate(97.123867 493.843437)rotate(-90)scale(0.1 -0.1)">
       <defs>
        <path d="M 19.671875 64.796875 
L 19.671875 8.109375 
L 31.59375 8.109375 
Q 46.6875 8.109375 53.6875 14.9375 
Q 60.6875 21.78125 60.6875 36.53125 
Q 60.6875 51.171875 53.6875 57.984375 
Q 46.6875 64.796875 31.59375 64.796875 
z
M 9.8125 72.90625 
L 30.078125 72.90625 
Q 51.265625 72.90625 61.171875 64.09375 
Q 71.09375 55.28125 71.09375 36.53125 
Q 71.09375 17.671875 61.125 8.828125 
Q 51.171875 0 30.078125 0 
L 9.8125 0 
z
" id="DejaVuSans-68"/>
        <path d="M 9.421875 54.6875 
L 18.40625 54.6875 
L 18.40625 0 
L 9.421875 0 
z
M 9.421875 75.984375 
L 18.40625 75.984375 
L 18.40625 64.59375 
L 9.421875 64.59375 
z
" id="DejaVuSans-105"/>
        <path d="M 44.28125 53.078125 
L 44.28125 44.578125 
Q 40.484375 46.53125 36.375 47.5 
Q 32.28125 48.484375 27.875 48.484375 
Q 21.1875 48.484375 17.84375 46.4375 
Q 14.5 44.390625 14.5 40.28125 
Q 14.5 37.15625 16.890625 35.375 
Q 19.28125 33.59375 26.515625 31.984375 
L 29.59375 31.296875 
Q 39.15625 29.25 43.1875 25.515625 
Q 47.21875 21.78125 47.21875 15.09375 
Q 47.21875 7.46875 41.1875 3.015625 
Q 35.15625 -1.421875 24.609375 -1.421875 
Q 20.21875 -1.421875 15.453125 -0.5625 
Q 10.6875 0.296875 5.421875 2 
L 5.421875 11.28125 
Q 10.40625 8.6875 15.234375 7.390625 
Q 20.0625 6.109375 24.8125 6.109375 
Q 31.15625 6.109375 34.5625 8.28125 
Q 37.984375 10.453125 37.984375 14.40625 
Q 37.984375 18.0625 35.515625 20.015625 
Q 33.0625 21.96875 24.703125 23.78125 
L 21.578125 24.515625 
Q 13.234375 26.265625 9.515625 29.90625 
Q 5.8125 33.546875 5.8125 39.890625 
Q 5.8125 47.609375 11.28125 51.796875 
Q 16.75 56 26.8125 56 
Q 31.78125 56 36.171875 55.265625 
Q 40.578125 54.546875 44.28125 53.078125 
z
" id="DejaVuSans-115"/>
        <path d="M 18.3125 70.21875 
L 18.3125 54.6875 
L 36.8125 54.6875 
L 36.8125 47.703125 
L 18.3125 47.703125 
L 18.3125 18.015625 
Q 18.3125 11.328125 20.140625 9.421875 
Q 21.96875 7.515625 27.59375 7.515625 
L 36.8125 7.515625 
L 36.8125 0 
L 27.59375 0 
Q 17.1875 0 13.234375 3.875 
Q 9.28125 7.765625 9.28125 18.015625 
L 9.28125 47.703125 
L 2.6875 47.703125 
L 2.6875 54.6875 
L 9.28125 54.6875 
L 9.28125 70.21875 
z
" id="DejaVuSans-116"/>
        <path d="M 41.109375 46.296875 
Q 39.59375 47.171875 37.8125 47.578125 
Q 36.03125 48 33.890625 48 
Q 26.265625 48 22.1875 43.046875 
Q 18.109375 38.09375 18.109375 28.8125 
L 18.109375 0 
L 9.078125 0 
L 9.078125 54.6875 
L 18.109375 54.6875 
L 18.109375 46.1875 
Q 20.953125 51.171875 25.484375 53.578125 
Q 30.03125 56 36.53125 56 
Q 37.453125 56 38.578125 55.875 
Q 39.703125 55.765625 41.0625 55.515625 
z
" id="DejaVuSans-114"/>
        <path d="M 48.78125 52.59375 
L 48.78125 44.1875 
Q 44.96875 46.296875 41.140625 47.34375 
Q 37.3125 48.390625 33.40625 48.390625 
Q 24.65625 48.390625 19.8125 42.84375 
Q 14.984375 37.3125 14.984375 27.296875 
Q 14.984375 17.28125 19.8125 11.734375 
Q 24.65625 6.203125 33.40625 6.203125 
Q 37.3125 6.203125 41.140625 7.25 
Q 44.96875 8.296875 48.78125 10.40625 
L 48.78125 2.09375 
Q 45.015625 0.34375 40.984375 -0.53125 
Q 36.96875 -1.421875 32.421875 -1.421875 
Q 20.0625 -1.421875 12.78125 6.34375 
Q 5.515625 14.109375 5.515625 27.296875 
Q 5.515625 40.671875 12.859375 48.328125 
Q 20.21875 56 33.015625 56 
Q 37.15625 56 41.109375 55.140625 
Q 45.0625 54.296875 48.78125 52.59375 
z
" id="DejaVuSans-99"/>
        <path id="DejaVuSans-32"/>
        <path d="M 30.609375 48.390625 
Q 23.390625 48.390625 19.1875 42.75 
Q 14.984375 37.109375 14.984375 27.296875 
Q 14.984375 17.484375 19.15625 11.84375 
Q 23.34375 6.203125 30.609375 6.203125 
Q 37.796875 6.203125 41.984375 11.859375 
Q 46.1875 17.53125 46.1875 27.296875 
Q 46.1875 37.015625 41.984375 42.703125 
Q 37.796875 48.390625 30.609375 48.390625 
z
M 30.609375 56 
Q 42.328125 56 49.015625 48.375 
Q 55.71875 40.765625 55.71875 27.296875 
Q 55.71875 13.875 49.015625 6.21875 
Q 42.328125 -1.421875 30.609375 -1.421875 
Q 18.84375 -1.421875 12.171875 6.21875 
Q 5.515625 13.875 5.515625 27.296875 
Q 5.515625 40.765625 12.171875 48.375 
Q 18.84375 56 30.609375 56 
z
" id="DejaVuSans-111"/>
        <path d="M 37.109375 75.984375 
L 37.109375 68.5 
L 28.515625 68.5 
Q 23.6875 68.5 21.796875 66.546875 
Q 19.921875 64.59375 19.921875 59.515625 
L 19.921875 54.6875 
L 34.71875 54.6875 
L 34.71875 47.703125 
L 19.921875 47.703125 
L 19.921875 0 
L 10.890625 0 
L 10.890625 47.703125 
L 2.296875 47.703125 
L 2.296875 54.6875 
L 10.890625 54.6875 
L 10.890625 58.5 
Q 10.890625 67.625 15.140625 71.796875 
Q 19.390625 75.984375 28.609375 75.984375 
z
" id="DejaVuSans-102"/>
        <path d="M 64.40625 67.28125 
L 64.40625 56.890625 
Q 59.421875 61.53125 53.78125 63.8125 
Q 48.140625 66.109375 41.796875 66.109375 
Q 29.296875 66.109375 22.65625 58.46875 
Q 16.015625 50.828125 16.015625 36.375 
Q 16.015625 21.96875 22.65625 14.328125 
Q 29.296875 6.6875 41.796875 6.6875 
Q 48.140625 6.6875 53.78125 8.984375 
Q 59.421875 11.28125 64.40625 15.921875 
L 64.40625 5.609375 
Q 59.234375 2.09375 53.4375 0.328125 
Q 47.65625 -1.421875 41.21875 -1.421875 
Q 24.65625 -1.421875 15.125 8.703125 
Q 5.609375 18.84375 5.609375 36.375 
Q 5.609375 53.953125 15.125 64.078125 
Q 24.65625 74.21875 41.21875 74.21875 
Q 47.75 74.21875 53.53125 72.484375 
Q 59.328125 70.75 64.40625 67.28125 
z
" id="DejaVuSans-67"/>
        <path d="M 9.421875 75.984375 
L 18.40625 75.984375 
L 18.40625 0 
L 9.421875 0 
z
" id="DejaVuSans-108"/>
        <path d="M 8.5 21.578125 
L 8.5 54.6875 
L 17.484375 54.6875 
L 17.484375 21.921875 
Q 17.484375 14.15625 20.5 10.265625 
Q 23.53125 6.390625 29.59375 6.390625 
Q 36.859375 6.390625 41.078125 11.03125 
Q 45.3125 15.671875 45.3125 23.6875 
L 45.3125 54.6875 
L 54.296875 54.6875 
L 54.296875 0 
L 45.3125 0 
L 45.3125 8.40625 
Q 42.046875 3.421875 37.71875 1 
Q 33.40625 -1.421875 27.6875 -1.421875 
Q 18.265625 -1.421875 13.375 4.4375 
Q 8.5 10.296875 8.5 21.578125 
z
M 31.109375 56 
z
" id="DejaVuSans-117"/>
        <path d="M 52 44.1875 
Q 55.375 50.25 60.0625 53.125 
Q 64.75 56 71.09375 56 
Q 79.640625 56 84.28125 50.015625 
Q 88.921875 44.046875 88.921875 33.015625 
L 88.921875 0 
L 79.890625 0 
L 79.890625 32.71875 
Q 79.890625 40.578125 77.09375 44.375 
Q 74.3125 48.1875 68.609375 48.1875 
Q 61.625 48.1875 57.5625 43.546875 
Q 53.515625 38.921875 53.515625 30.90625 
L 53.515625 0 
L 44.484375 0 
L 44.484375 32.71875 
Q 44.484375 40.625 41.703125 44.40625 
Q 38.921875 48.1875 33.109375 48.1875 
Q 26.21875 48.1875 22.15625 43.53125 
Q 18.109375 38.875 18.109375 30.90625 
L 18.109375 0 
L 9.078125 0 
L 9.078125 54.6875 
L 18.109375 54.6875 
L 18.109375 46.1875 
Q 21.1875 51.21875 25.484375 53.609375 
Q 29.78125 56 35.6875 56 
Q 41.65625 56 45.828125 52.96875 
Q 50 49.953125 52 44.1875 
z
" id="DejaVuSans-109"/>
        <path d="M 48.6875 27.296875 
Q 48.6875 37.203125 44.609375 42.84375 
Q 40.53125 48.484375 33.40625 48.484375 
Q 26.265625 48.484375 22.1875 42.84375 
Q 18.109375 37.203125 18.109375 27.296875 
Q 18.109375 17.390625 22.1875 11.75 
Q 26.265625 6.109375 33.40625 6.109375 
Q 40.53125 6.109375 44.609375 11.75 
Q 48.6875 17.390625 48.6875 27.296875 
z
M 18.109375 46.390625 
Q 20.953125 51.265625 25.265625 53.625 
Q 29.59375 56 35.59375 56 
Q 45.5625 56 51.78125 48.09375 
Q 58.015625 40.1875 58.015625 27.296875 
Q 58.015625 14.40625 51.78125 6.484375 
Q 45.5625 -1.421875 35.59375 -1.421875 
Q 29.59375 -1.421875 25.265625 0.953125 
Q 20.953125 3.328125 18.109375 8.203125 
L 18.109375 0 
L 9.078125 0 
L 9.078125 75.984375 
L 18.109375 75.984375 
z
" id="DejaVuSans-98"/>
        <path d="M 34.28125 27.484375 
Q 23.390625 27.484375 19.1875 25 
Q 14.984375 22.515625 14.984375 16.5 
Q 14.984375 11.71875 18.140625 8.90625 
Q 21.296875 6.109375 26.703125 6.109375 
Q 34.1875 6.109375 38.703125 11.40625 
Q 43.21875 16.703125 43.21875 25.484375 
L 43.21875 27.484375 
z
M 52.203125 31.203125 
L 52.203125 0 
L 43.21875 0 
L 43.21875 8.296875 
Q 40.140625 3.328125 35.546875 0.953125 
Q 30.953125 -1.421875 24.3125 -1.421875 
Q 15.921875 -1.421875 10.953125 3.296875 
Q 6 8.015625 6 15.921875 
Q 6 25.140625 12.171875 29.828125 
Q 18.359375 34.515625 30.609375 34.515625 
L 43.21875 34.515625 
L 43.21875 35.40625 
Q 43.21875 41.609375 39.140625 45 
Q 35.0625 48.390625 27.6875 48.390625 
Q 23 48.390625 18.546875 47.265625 
Q 14.109375 46.140625 10.015625 43.890625 
L 10.015625 52.203125 
Q 14.9375 54.109375 19.578125 55.046875 
Q 24.21875 56 28.609375 56 
Q 40.484375 56 46.34375 49.84375 
Q 52.203125 43.703125 52.203125 31.203125 
z
" id="DejaVuSans-97"/>
       </defs>
       <use xlink:href="#DejaVuSans-68"/>
       <use x="77.001953" xlink:href="#DejaVuSans-105"/>
       <use x="104.785156" xlink:href="#DejaVuSans-115"/>
       <use x="156.884766" xlink:href="#DejaVuSans-116"/>
       <use x="196.09375" xlink:href="#DejaVuSans-114"/>
       <use x="237.207031" xlink:href="#DejaVuSans-105"/>
       <use x="264.990234" xlink:href="#DejaVuSans-99"/>
       <use x="319.970703" xlink:href="#DejaVuSans-116"/>
       <use x="359.179688" xlink:href="#DejaVuSans-32"/>
       <use x="390.966797" xlink:href="#DejaVuSans-111"/>
       <use x="452.148438" xlink:href="#DejaVuSans-102"/>
       <use x="487.353516" xlink:href="#DejaVuSans-32"/>
       <use x="519.140625" xlink:href="#DejaVuSans-67"/>
       <use x="588.964844" xlink:href="#DejaVuSans-111"/>
       <use x="650.146484" xlink:href="#DejaVuSans-108"/>
       <use x="677.929688" xlink:href="#DejaVuSans-117"/>
       <use x="741.308594" xlink:href="#DejaVuSans-109"/>
       <use x="838.720703" xlink:href="#DejaVuSans-98"/>
       <use x="902.197266" xlink:href="#DejaVuSans-105"/>
       <use x="929.980469" xlink:href="#DejaVuSans-97"/>
      </g>
     </g>
    </g>
    <g id="xtick_2">
     <g id="line2d_2">
      <g>
       <use style="stroke:#000000;stroke-width:0.8;" x="106.347312" xlink:href="#mb795c20b5c" y="387.72"/>
      </g>
     </g>
     <g id="text_2">
      <!-- Wyoming -->
      <g transform="translate(109.106687 441.674688)rotate(-90)scale(0.1 -0.1)">
       <defs>
        <path d="M 3.328125 72.90625 
L 13.28125 72.90625 
L 28.609375 11.28125 
L 43.890625 72.90625 
L 54.984375 72.90625 
L 70.3125 11.28125 
L 85.59375 72.90625 
L 95.609375 72.90625 
L 77.296875 0 
L 64.890625 0 
L 49.515625 63.28125 
L 33.984375 0 
L 21.578125 0 
z
" id="DejaVuSans-87"/>
        <path d="M 32.171875 -5.078125 
Q 28.375 -14.84375 24.75 -17.8125 
Q 21.140625 -20.796875 15.09375 -20.796875 
L 7.90625 -20.796875 
L 7.90625 -13.28125 
L 13.1875 -13.28125 
Q 16.890625 -13.28125 18.9375 -11.515625 
Q 21 -9.765625 23.484375 -3.21875 
L 25.09375 0.875 
L 2.984375 54.6875 
L 12.5 54.6875 
L 29.59375 11.921875 
L 46.6875 54.6875 
L 56.203125 54.6875 
z
" id="DejaVuSans-121"/>
        <path d="M 54.890625 33.015625 
L 54.890625 0 
L 45.90625 0 
L 45.90625 32.71875 
Q 45.90625 40.484375 42.875 44.328125 
Q 39.84375 48.1875 33.796875 48.1875 
Q 26.515625 48.1875 22.3125 43.546875 
Q 18.109375 38.921875 18.109375 30.90625 
L 18.109375 0 
L 9.078125 0 
L 9.078125 54.6875 
L 18.109375 54.6875 
L 18.109375 46.1875 
Q 21.34375 51.125 25.703125 53.5625 
Q 30.078125 56 35.796875 56 
Q 45.21875 56 50.046875 50.171875 
Q 54.890625 44.34375 54.890625 33.015625 
z
" id="DejaVuSans-110"/>
        <path d="M 45.40625 27.984375 
Q 45.40625 37.75 41.375 43.109375 
Q 37.359375 48.484375 30.078125 48.484375 
Q 22.859375 48.484375 18.828125 43.109375 
Q 14.796875 37.75 14.796875 27.984375 
Q 14.796875 18.265625 18.828125 12.890625 
Q 22.859375 7.515625 30.078125 7.515625 
Q 37.359375 7.515625 41.375 12.890625 
Q 45.40625 18.265625 45.40625 27.984375 
z
M 54.390625 6.78125 
Q 54.390625 -7.171875 48.1875 -13.984375 
Q 42 -20.796875 29.203125 -20.796875 
Q 24.46875 -20.796875 20.265625 -20.09375 
Q 16.0625 -19.390625 12.109375 -17.921875 
L 12.109375 -9.1875 
Q 16.0625 -11.328125 19.921875 -12.34375 
Q 23.78125 -13.375 27.78125 -13.375 
Q 36.625 -13.375 41.015625 -8.765625 
Q 45.40625 -4.15625 45.40625 5.171875 
L 45.40625 9.625 
Q 42.625 4.78125 38.28125 2.390625 
Q 33.9375 0 27.875 0 
Q 17.828125 0 11.671875 7.65625 
Q 5.515625 15.328125 5.515625 27.984375 
Q 5.515625 40.671875 11.671875 48.328125 
Q 17.828125 56 27.875 56 
Q 33.9375 56 38.28125 53.609375 
Q 42.625 51.21875 45.40625 46.390625 
L 45.40625 54.6875 
L 54.390625 54.6875 
z
" id="DejaVuSans-103"/>
       </defs>
       <use xlink:href="#DejaVuSans-87"/>
       <use x="97.126953" xlink:href="#DejaVuSans-121"/>
       <use x="156.306641" xlink:href="#DejaVuSans-111"/>
       <use x="217.488281" xlink:href="#DejaVuSans-109"/>
       <use x="314.900391" xlink:href="#DejaVuSans-105"/>
       <use x="342.683594" xlink:href="#DejaVuSans-110"/>
       <use x="406.0625" xlink:href="#DejaVuSans-103"/>
      </g>
     </g>
    </g>
    <g id="xtick_3">
     <g id="line2d_3">
      <g>
       <use style="stroke:#000000;stroke-width:0.8;" x="118.330132" xlink:href="#mb795c20b5c" y="387.72"/>
      </g>
     </g>
     <g id="text_3">
      <!-- Alaska -->
      <g transform="translate(121.089507 427.42)rotate(-90)scale(0.1 -0.1)">
       <defs>
        <path d="M 34.1875 63.1875 
L 20.796875 26.90625 
L 47.609375 26.90625 
z
M 28.609375 72.90625 
L 39.796875 72.90625 
L 67.578125 0 
L 57.328125 0 
L 50.6875 18.703125 
L 17.828125 18.703125 
L 11.1875 0 
L 0.78125 0 
z
" id="DejaVuSans-65"/>
        <path d="M 9.078125 75.984375 
L 18.109375 75.984375 
L 18.109375 31.109375 
L 44.921875 54.6875 
L 56.390625 54.6875 
L 27.390625 29.109375 
L 57.625 0 
L 45.90625 0 
L 18.109375 26.703125 
L 18.109375 0 
L 9.078125 0 
z
" id="DejaVuSans-107"/>
       </defs>
       <use xlink:href="#DejaVuSans-65"/>
       <use x="68.408203" xlink:href="#DejaVuSans-108"/>
       <use x="96.191406" xlink:href="#DejaVuSans-97"/>
       <use x="157.470703" xlink:href="#DejaVuSans-115"/>
       <use x="209.570312" xlink:href="#DejaVuSans-107"/>
       <use x="265.730469" xlink:href="#DejaVuSans-97"/>
      </g>
     </g>
    </g>
    <g id="xtick_4">
     <g id="line2d_4">
      <g>
       <use style="stroke:#000000;stroke-width:0.8;" x="130.312953" xlink:href="#mb795c20b5c" y="387.72"/>
      </g>
     </g>
     <g id="text_4">
      <!-- Delaware -->
      <g transform="translate(133.072328 441.824687)rotate(-90)scale(0.1 -0.1)">
       <defs>
        <path d="M 56.203125 29.59375 
L 56.203125 25.203125 
L 14.890625 25.203125 
Q 15.484375 15.921875 20.484375 11.0625 
Q 25.484375 6.203125 34.421875 6.203125 
Q 39.59375 6.203125 44.453125 7.46875 
Q 49.3125 8.734375 54.109375 11.28125 
L 54.109375 2.78125 
Q 49.265625 0.734375 44.1875 -0.34375 
Q 39.109375 -1.421875 33.890625 -1.421875 
Q 20.796875 -1.421875 13.15625 6.1875 
Q 5.515625 13.8125 5.515625 26.8125 
Q 5.515625 40.234375 12.765625 48.109375 
Q 20.015625 56 32.328125 56 
Q 43.359375 56 49.78125 48.890625 
Q 56.203125 41.796875 56.203125 29.59375 
z
M 47.21875 32.234375 
Q 47.125 39.59375 43.09375 43.984375 
Q 39.0625 48.390625 32.421875 48.390625 
Q 24.90625 48.390625 20.390625 44.140625 
Q 15.875 39.890625 15.1875 32.171875 
z
" id="DejaVuSans-101"/>
        <path d="M 4.203125 54.6875 
L 13.1875 54.6875 
L 24.421875 12.015625 
L 35.59375 54.6875 
L 46.1875 54.6875 
L 57.421875 12.015625 
L 68.609375 54.6875 
L 77.59375 54.6875 
L 63.28125 0 
L 52.6875 0 
L 40.921875 44.828125 
L 29.109375 0 
L 18.5 0 
z
" id="DejaVuSans-119"/>
       </defs>
       <use xlink:href="#DejaVuSans-68"/>
       <use x="77.001953" xlink:href="#DejaVuSans-101"/>
       <use x="138.525391" xlink:href="#DejaVuSans-108"/>
       <use x="166.308594" xlink:href="#DejaVuSans-97"/>
       <use x="227.587891" xlink:href="#DejaVuSans-119"/>
       <use x="309.375" xlink:href="#DejaVuSans-97"/>
       <use x="370.654297" xlink:href="#DejaVuSans-114"/>
       <use x="409.517578" xlink:href="#DejaVuSans-101"/>
      </g>
     </g>
    </g>
    <g id="xtick_5">
     <g id="line2d_5">
      <g>
       <use style="stroke:#000000;stroke-width:0.8;" x="142.295773" xlink:href="#mb795c20b5c" y="387.72"/>
      </g>
     </g>
     <g id="text_5">
      <!-- Hawaii -->
      <g transform="translate(145.055148 428.230937)rotate(-90)scale(0.1 -0.1)">
       <defs>
        <path d="M 9.8125 72.90625 
L 19.671875 72.90625 
L 19.671875 43.015625 
L 55.515625 43.015625 
L 55.515625 72.90625 
L 65.375 72.90625 
L 65.375 0 
L 55.515625 0 
L 55.515625 34.71875 
L 19.671875 34.71875 
L 19.671875 0 
L 9.8125 0 
z
" id="DejaVuSans-72"/>
       </defs>
       <use xlink:href="#DejaVuSans-72"/>
       <use x="75.195312" xlink:href="#DejaVuSans-97"/>
       <use x="136.474609" xlink:href="#DejaVuSans-119"/>
       <use x="218.261719" xlink:href="#DejaVuSans-97"/>
       <use x="279.541016" xlink:href="#DejaVuSans-105"/>
       <use x="307.324219" xlink:href="#DejaVuSans-105"/>
      </g>
     </g>
    </g>
    <g id="xtick_6">
     <g id="line2d_6">
      <g>
       <use style="stroke:#000000;stroke-width:0.8;" x="154.278593" xlink:href="#mb795c20b5c" y="387.72"/>
      </g>
     </g>
     <g id="text_6">
      <!-- Mississippi -->
      <g transform="translate(157.037968 447.995)rotate(-90)scale(0.1 -0.1)">
       <defs>
        <path d="M 9.8125 72.90625 
L 24.515625 72.90625 
L 43.109375 23.296875 
L 61.8125 72.90625 
L 76.515625 72.90625 
L 76.515625 0 
L 66.890625 0 
L 66.890625 64.015625 
L 48.09375 14.015625 
L 38.1875 14.015625 
L 19.390625 64.015625 
L 19.390625 0 
L 9.8125 0 
z
" id="DejaVuSans-77"/>
        <path d="M 18.109375 8.203125 
L 18.109375 -20.796875 
L 9.078125 -20.796875 
L 9.078125 54.6875 
L 18.109375 54.6875 
L 18.109375 46.390625 
Q 20.953125 51.265625 25.265625 53.625 
Q 29.59375 56 35.59375 56 
Q 45.5625 56 51.78125 48.09375 
Q 58.015625 40.1875 58.015625 27.296875 
Q 58.015625 14.40625 51.78125 6.484375 
Q 45.5625 -1.421875 35.59375 -1.421875 
Q 29.59375 -1.421875 25.265625 0.953125 
Q 20.953125 3.328125 18.109375 8.203125 
z
M 48.6875 27.296875 
Q 48.6875 37.203125 44.609375 42.84375 
Q 40.53125 48.484375 33.40625 48.484375 
Q 26.265625 48.484375 22.1875 42.84375 
Q 18.109375 37.203125 18.109375 27.296875 
Q 18.109375 17.390625 22.1875 11.75 
Q 26.265625 6.109375 33.40625 6.109375 
Q 40.53125 6.109375 44.609375 11.75 
Q 48.6875 17.390625 48.6875 27.296875 
z
" id="DejaVuSans-112"/>
       </defs>
       <use xlink:href="#DejaVuSans-77"/>
       <use x="86.279297" xlink:href="#DejaVuSans-105"/>
       <use x="114.0625" xlink:href="#DejaVuSans-115"/>
       <use x="166.162109" xlink:href="#DejaVuSans-115"/>
       <use x="218.261719" xlink:href="#DejaVuSans-105"/>
       <use x="246.044922" xlink:href="#DejaVuSans-115"/>
       <use x="298.144531" xlink:href="#DejaVuSans-115"/>
       <use x="350.244141" xlink:href="#DejaVuSans-105"/>
       <use x="378.027344" xlink:href="#DejaVuSans-112"/>
       <use x="441.503906" xlink:href="#DejaVuSans-112"/>
       <use x="504.980469" xlink:href="#DejaVuSans-105"/>
      </g>
     </g>
    </g>
    <g id="xtick_7">
     <g id="line2d_7">
      <g>
       <use style="stroke:#000000;stroke-width:0.8;" x="166.261414" xlink:href="#mb795c20b5c" y="387.72"/>
      </g>
     </g>
     <g id="text_7">
      <!-- North Dakota -->
      <g transform="translate(169.020789 461.290313)rotate(-90)scale(0.1 -0.1)">
       <defs>
        <path d="M 9.8125 72.90625 
L 23.09375 72.90625 
L 55.421875 11.921875 
L 55.421875 72.90625 
L 64.984375 72.90625 
L 64.984375 0 
L 51.703125 0 
L 19.390625 60.984375 
L 19.390625 0 
L 9.8125 0 
z
" id="DejaVuSans-78"/>
        <path d="M 54.890625 33.015625 
L 54.890625 0 
L 45.90625 0 
L 45.90625 32.71875 
Q 45.90625 40.484375 42.875 44.328125 
Q 39.84375 48.1875 33.796875 48.1875 
Q 26.515625 48.1875 22.3125 43.546875 
Q 18.109375 38.921875 18.109375 30.90625 
L 18.109375 0 
L 9.078125 0 
L 9.078125 75.984375 
L 18.109375 75.984375 
L 18.109375 46.1875 
Q 21.34375 51.125 25.703125 53.5625 
Q 30.078125 56 35.796875 56 
Q 45.21875 56 50.046875 50.171875 
Q 54.890625 44.34375 54.890625 33.015625 
z
" id="DejaVuSans-104"/>
       </defs>
       <use xlink:href="#DejaVuSans-78"/>
       <use x="74.804688" xlink:href="#DejaVuSans-111"/>
       <use x="135.986328" xlink:href="#DejaVuSans-114"/>
       <use x="177.099609" xlink:href="#DejaVuSans-116"/>
       <use x="216.308594" xlink:href="#DejaVuSans-104"/>
       <use x="279.6875" xlink:href="#DejaVuSans-32"/>
       <use x="311.474609" xlink:href="#DejaVuSans-68"/>
       <use x="388.476562" xlink:href="#DejaVuSans-97"/>
       <use x="449.755859" xlink:href="#DejaVuSans-107"/>
       <use x="504.041016" xlink:href="#DejaVuSans-111"/>
       <use x="565.222656" xlink:href="#DejaVuSans-116"/>
       <use x="604.431641" xlink:href="#DejaVuSans-97"/>
      </g>
     </g>
    </g>
    <g id="xtick_8">
     <g id="line2d_8">
      <g>
       <use style="stroke:#000000;stroke-width:0.8;" x="178.244234" xlink:href="#mb795c20b5c" y="387.72"/>
      </g>
     </g>
     <g id="text_8">
      <!-- West Virginia -->
      <g transform="translate(181.003609 460.180938)rotate(-90)scale(0.1 -0.1)">
       <defs>
        <path d="M 28.609375 0 
L 0.78125 72.90625 
L 11.078125 72.90625 
L 34.1875 11.53125 
L 57.328125 72.90625 
L 67.578125 72.90625 
L 39.796875 0 
z
" id="DejaVuSans-86"/>
       </defs>
       <use xlink:href="#DejaVuSans-87"/>
       <use x="93.001953" xlink:href="#DejaVuSans-101"/>
       <use x="154.525391" xlink:href="#DejaVuSans-115"/>
       <use x="206.625" xlink:href="#DejaVuSans-116"/>
       <use x="245.833984" xlink:href="#DejaVuSans-32"/>
       <use x="277.621094" xlink:href="#DejaVuSans-86"/>
       <use x="343.779297" xlink:href="#DejaVuSans-105"/>
       <use x="371.5625" xlink:href="#DejaVuSans-114"/>
       <use x="410.925781" xlink:href="#DejaVuSans-103"/>
       <use x="474.402344" xlink:href="#DejaVuSans-105"/>
       <use x="502.185547" xlink:href="#DejaVuSans-110"/>
       <use x="565.564453" xlink:href="#DejaVuSans-105"/>
       <use x="593.347656" xlink:href="#DejaVuSans-97"/>
      </g>
     </g>
    </g>
    <g id="xtick_9">
     <g id="line2d_9">
      <g>
       <use style="stroke:#000000;stroke-width:0.8;" x="190.227054" xlink:href="#mb795c20b5c" y="387.72"/>
      </g>
     </g>
     <g id="text_9">
      <!-- Arkansas -->
      <g transform="translate(192.986429 440.299688)rotate(-90)scale(0.1 -0.1)">
       <use xlink:href="#DejaVuSans-65"/>
       <use x="68.408203" xlink:href="#DejaVuSans-114"/>
       <use x="109.521484" xlink:href="#DejaVuSans-107"/>
       <use x="165.681641" xlink:href="#DejaVuSans-97"/>
       <use x="226.960938" xlink:href="#DejaVuSans-110"/>
       <use x="290.339844" xlink:href="#DejaVuSans-115"/>
       <use x="342.439453" xlink:href="#DejaVuSans-97"/>
       <use x="403.71875" xlink:href="#DejaVuSans-115"/>
      </g>
     </g>
    </g>
    <g id="xtick_10">
     <g id="line2d_10">
      <g>
       <use style="stroke:#000000;stroke-width:0.8;" x="202.209875" xlink:href="#mb795c20b5c" y="387.72"/>
      </g>
     </g>
     <g id="text_10">
      <!-- Vermont -->
      <g transform="translate(204.96925 436.991875)rotate(-90)scale(0.1 -0.1)">
       <use xlink:href="#DejaVuSans-86"/>
       <use x="60.658203" xlink:href="#DejaVuSans-101"/>
       <use x="122.181641" xlink:href="#DejaVuSans-114"/>
       <use x="161.544922" xlink:href="#DejaVuSans-109"/>
       <use x="258.957031" xlink:href="#DejaVuSans-111"/>
       <use x="320.138672" xlink:href="#DejaVuSans-110"/>
       <use x="383.517578" xlink:href="#DejaVuSans-116"/>
      </g>
     </g>
    </g>
    <g id="xtick_11">
     <g id="line2d_11">
      <g>
       <use style="stroke:#000000;stroke-width:0.8;" x="214.192695" xlink:href="#mb795c20b5c" y="387.72"/>
      </g>
     </g>
     <g id="text_11">
      <!-- South Dakota -->
      <g transform="translate(216.95207 462.384063)rotate(-90)scale(0.1 -0.1)">
       <defs>
        <path d="M 53.515625 70.515625 
L 53.515625 60.890625 
Q 47.90625 63.578125 42.921875 64.890625 
Q 37.9375 66.21875 33.296875 66.21875 
Q 25.25 66.21875 20.875 63.09375 
Q 16.5 59.96875 16.5 54.203125 
Q 16.5 49.359375 19.40625 46.890625 
Q 22.3125 44.4375 30.421875 42.921875 
L 36.375 41.703125 
Q 47.40625 39.59375 52.65625 34.296875 
Q 57.90625 29 57.90625 20.125 
Q 57.90625 9.515625 50.796875 4.046875 
Q 43.703125 -1.421875 29.984375 -1.421875 
Q 24.8125 -1.421875 18.96875 -0.25 
Q 13.140625 0.921875 6.890625 3.21875 
L 6.890625 13.375 
Q 12.890625 10.015625 18.65625 8.296875 
Q 24.421875 6.59375 29.984375 6.59375 
Q 38.421875 6.59375 43.015625 9.90625 
Q 47.609375 13.234375 47.609375 19.390625 
Q 47.609375 24.75 44.3125 27.78125 
Q 41.015625 30.8125 33.5 32.328125 
L 27.484375 33.5 
Q 16.453125 35.6875 11.515625 40.375 
Q 6.59375 45.0625 6.59375 53.421875 
Q 6.59375 63.09375 13.40625 68.65625 
Q 20.21875 74.21875 32.171875 74.21875 
Q 37.3125 74.21875 42.625 73.28125 
Q 47.953125 72.359375 53.515625 70.515625 
z
" id="DejaVuSans-83"/>
       </defs>
       <use xlink:href="#DejaVuSans-83"/>
       <use x="63.476562" xlink:href="#DejaVuSans-111"/>
       <use x="124.658203" xlink:href="#DejaVuSans-117"/>
       <use x="188.037109" xlink:href="#DejaVuSans-116"/>
       <use x="227.246094" xlink:href="#DejaVuSans-104"/>
       <use x="290.625" xlink:href="#DejaVuSans-32"/>
       <use x="322.412109" xlink:href="#DejaVuSans-68"/>
       <use x="399.414062" xlink:href="#DejaVuSans-97"/>
       <use x="460.693359" xlink:href="#DejaVuSans-107"/>
       <use x="514.978516" xlink:href="#DejaVuSans-111"/>
       <use x="576.160156" xlink:href="#DejaVuSans-116"/>
       <use x="615.369141" xlink:href="#DejaVuSans-97"/>
      </g>
     </g>
    </g>
    <g id="xtick_12">
     <g id="line2d_12">
      <g>
       <use style="stroke:#000000;stroke-width:0.8;" x="226.175515" xlink:href="#mb795c20b5c" y="387.72"/>
      </g>
     </g>
     <g id="text_12">
      <!-- Montana -->
      <g transform="translate(228.93489 438.318438)rotate(-90)scale(0.1 -0.1)">
       <use xlink:href="#DejaVuSans-77"/>
       <use x="86.279297" xlink:href="#DejaVuSans-111"/>
       <use x="147.460938" xlink:href="#DejaVuSans-110"/>
       <use x="210.839844" xlink:href="#DejaVuSans-116"/>
       <use x="250.048828" xlink:href="#DejaVuSans-97"/>
       <use x="311.328125" xlink:href="#DejaVuSans-110"/>
       <use x="374.707031" xlink:href="#DejaVuSans-97"/>
      </g>
     </g>
    </g>
    <g id="xtick_13">
     <g id="line2d_13">
      <g>
       <use style="stroke:#000000;stroke-width:0.8;" x="238.158336" xlink:href="#mb795c20b5c" y="387.72"/>
      </g>
     </g>
     <g id="text_13">
      <!-- Nevada -->
      <g transform="translate(240.917711 432.877813)rotate(-90)scale(0.1 -0.1)">
       <defs>
        <path d="M 2.984375 54.6875 
L 12.5 54.6875 
L 29.59375 8.796875 
L 46.6875 54.6875 
L 56.203125 54.6875 
L 35.6875 0 
L 23.484375 0 
z
" id="DejaVuSans-118"/>
        <path d="M 45.40625 46.390625 
L 45.40625 75.984375 
L 54.390625 75.984375 
L 54.390625 0 
L 45.40625 0 
L 45.40625 8.203125 
Q 42.578125 3.328125 38.25 0.953125 
Q 33.9375 -1.421875 27.875 -1.421875 
Q 17.96875 -1.421875 11.734375 6.484375 
Q 5.515625 14.40625 5.515625 27.296875 
Q 5.515625 40.1875 11.734375 48.09375 
Q 17.96875 56 27.875 56 
Q 33.9375 56 38.25 53.625 
Q 42.578125 51.265625 45.40625 46.390625 
z
M 14.796875 27.296875 
Q 14.796875 17.390625 18.875 11.75 
Q 22.953125 6.109375 30.078125 6.109375 
Q 37.203125 6.109375 41.296875 11.75 
Q 45.40625 17.390625 45.40625 27.296875 
Q 45.40625 37.203125 41.296875 42.84375 
Q 37.203125 48.484375 30.078125 48.484375 
Q 22.953125 48.484375 18.875 42.84375 
Q 14.796875 37.203125 14.796875 27.296875 
z
" id="DejaVuSans-100"/>
       </defs>
       <use xlink:href="#DejaVuSans-78"/>
       <use x="74.804688" xlink:href="#DejaVuSans-101"/>
       <use x="136.328125" xlink:href="#DejaVuSans-118"/>
       <use x="195.507812" xlink:href="#DejaVuSans-97"/>
       <use x="256.787109" xlink:href="#DejaVuSans-100"/>
       <use x="320.263672" xlink:href="#DejaVuSans-97"/>
      </g>
     </g>
    </g>
    <g id="xtick_14">
     <g id="line2d_14">
      <g>
       <use style="stroke:#000000;stroke-width:0.8;" x="250.141156" xlink:href="#mb795c20b5c" y="387.72"/>
      </g>
     </g>
     <g id="text_14">
      <!-- Rhode Island -->
      <g transform="translate(252.900531 459.555938)rotate(-90)scale(0.1 -0.1)">
       <defs>
        <path d="M 44.390625 34.1875 
Q 47.5625 33.109375 50.5625 29.59375 
Q 53.5625 26.078125 56.59375 19.921875 
L 66.609375 0 
L 56 0 
L 46.6875 18.703125 
Q 43.0625 26.03125 39.671875 28.421875 
Q 36.28125 30.8125 30.421875 30.8125 
L 19.671875 30.8125 
L 19.671875 0 
L 9.8125 0 
L 9.8125 72.90625 
L 32.078125 72.90625 
Q 44.578125 72.90625 50.734375 67.671875 
Q 56.890625 62.453125 56.890625 51.90625 
Q 56.890625 45.015625 53.6875 40.46875 
Q 50.484375 35.9375 44.390625 34.1875 
z
M 19.671875 64.796875 
L 19.671875 38.921875 
L 32.078125 38.921875 
Q 39.203125 38.921875 42.84375 42.21875 
Q 46.484375 45.515625 46.484375 51.90625 
Q 46.484375 58.296875 42.84375 61.546875 
Q 39.203125 64.796875 32.078125 64.796875 
z
" id="DejaVuSans-82"/>
        <path d="M 9.8125 72.90625 
L 19.671875 72.90625 
L 19.671875 0 
L 9.8125 0 
z
" id="DejaVuSans-73"/>
       </defs>
       <use xlink:href="#DejaVuSans-82"/>
       <use x="69.482422" xlink:href="#DejaVuSans-104"/>
       <use x="132.861328" xlink:href="#DejaVuSans-111"/>
       <use x="194.042969" xlink:href="#DejaVuSans-100"/>
       <use x="257.519531" xlink:href="#DejaVuSans-101"/>
       <use x="319.042969" xlink:href="#DejaVuSans-32"/>
       <use x="350.830078" xlink:href="#DejaVuSans-73"/>
       <use x="380.322266" xlink:href="#DejaVuSans-115"/>
       <use x="432.421875" xlink:href="#DejaVuSans-108"/>
       <use x="460.205078" xlink:href="#DejaVuSans-97"/>
       <use x="521.484375" xlink:href="#DejaVuSans-110"/>
       <use x="584.863281" xlink:href="#DejaVuSans-100"/>
      </g>
     </g>
    </g>
    <g id="xtick_15">
     <g id="line2d_15">
      <g>
       <use style="stroke:#000000;stroke-width:0.8;" x="262.123976" xlink:href="#mb795c20b5c" y="387.72"/>
      </g>
     </g>
     <g id="text_15">
      <!-- Maine -->
      <g transform="translate(264.883351 424.745)rotate(-90)scale(0.1 -0.1)">
       <use xlink:href="#DejaVuSans-77"/>
       <use x="86.279297" xlink:href="#DejaVuSans-97"/>
       <use x="147.558594" xlink:href="#DejaVuSans-105"/>
       <use x="175.341797" xlink:href="#DejaVuSans-110"/>
       <use x="238.720703" xlink:href="#DejaVuSans-101"/>
      </g>
     </g>
    </g>
    <g id="xtick_16">
     <g id="line2d_16">
      <g>
       <use style="stroke:#000000;stroke-width:0.8;" x="274.106797" xlink:href="#mb795c20b5c" y="387.72"/>
      </g>
     </g>
     <g id="text_16">
      <!-- New Mexico -->
      <g transform="translate(276.866172 454.630938)rotate(-90)scale(0.1 -0.1)">
       <defs>
        <path d="M 54.890625 54.6875 
L 35.109375 28.078125 
L 55.90625 0 
L 45.3125 0 
L 29.390625 21.484375 
L 13.484375 0 
L 2.875 0 
L 24.125 28.609375 
L 4.6875 54.6875 
L 15.28125 54.6875 
L 29.78125 35.203125 
L 44.28125 54.6875 
z
" id="DejaVuSans-120"/>
       </defs>
       <use xlink:href="#DejaVuSans-78"/>
       <use x="74.804688" xlink:href="#DejaVuSans-101"/>
       <use x="136.328125" xlink:href="#DejaVuSans-119"/>
       <use x="218.115234" xlink:href="#DejaVuSans-32"/>
       <use x="249.902344" xlink:href="#DejaVuSans-77"/>
       <use x="336.181641" xlink:href="#DejaVuSans-101"/>
       <use x="395.955078" xlink:href="#DejaVuSans-120"/>
       <use x="455.134766" xlink:href="#DejaVuSans-105"/>
       <use x="482.917969" xlink:href="#DejaVuSans-99"/>
       <use x="537.898438" xlink:href="#DejaVuSans-111"/>
      </g>
     </g>
    </g>
    <g id="xtick_17">
     <g id="line2d_17">
      <g>
       <use style="stroke:#000000;stroke-width:0.8;" x="286.089617" xlink:href="#mb795c20b5c" y="387.72"/>
      </g>
     </g>
     <g id="text_17">
      <!-- Nebraska -->
      <g transform="translate(288.848992 441.895)rotate(-90)scale(0.1 -0.1)">
       <use xlink:href="#DejaVuSans-78"/>
       <use x="74.804688" xlink:href="#DejaVuSans-101"/>
       <use x="136.328125" xlink:href="#DejaVuSans-98"/>
       <use x="199.804688" xlink:href="#DejaVuSans-114"/>
       <use x="240.917969" xlink:href="#DejaVuSans-97"/>
       <use x="302.197266" xlink:href="#DejaVuSans-115"/>
       <use x="354.296875" xlink:href="#DejaVuSans-107"/>
       <use x="410.457031" xlink:href="#DejaVuSans-97"/>
      </g>
     </g>
    </g>
    <g id="xtick_18">
     <g id="line2d_18">
      <g>
       <use style="stroke:#000000;stroke-width:0.8;" x="298.072437" xlink:href="#mb795c20b5c" y="387.72"/>
      </g>
     </g>
     <g id="text_18">
      <!-- Alabama -->
      <g transform="translate(300.831812 438.812187)rotate(-90)scale(0.1 -0.1)">
       <use xlink:href="#DejaVuSans-65"/>
       <use x="68.408203" xlink:href="#DejaVuSans-108"/>
       <use x="96.191406" xlink:href="#DejaVuSans-97"/>
       <use x="157.470703" xlink:href="#DejaVuSans-98"/>
       <use x="220.947266" xlink:href="#DejaVuSans-97"/>
       <use x="282.226562" xlink:href="#DejaVuSans-109"/>
       <use x="379.638672" xlink:href="#DejaVuSans-97"/>
      </g>
     </g>
    </g>
    <g id="xtick_19">
     <g id="line2d_19">
      <g>
       <use style="stroke:#000000;stroke-width:0.8;" x="310.055258" xlink:href="#mb795c20b5c" y="387.72"/>
      </g>
     </g>
     <g id="text_19">
      <!-- Idaho -->
      <g transform="translate(312.814633 422.602813)rotate(-90)scale(0.1 -0.1)">
       <use xlink:href="#DejaVuSans-73"/>
       <use x="29.492188" xlink:href="#DejaVuSans-100"/>
       <use x="92.96875" xlink:href="#DejaVuSans-97"/>
       <use x="154.248047" xlink:href="#DejaVuSans-104"/>
       <use x="217.626953" xlink:href="#DejaVuSans-111"/>
      </g>
     </g>
    </g>
    <g id="xtick_20">
     <g id="line2d_20">
      <g>
       <use style="stroke:#000000;stroke-width:0.8;" x="322.038078" xlink:href="#mb795c20b5c" y="387.72"/>
      </g>
     </g>
     <g id="text_20">
      <!-- South Carolina -->
      <g transform="translate(324.797453 468.098125)rotate(-90)scale(0.1 -0.1)">
       <use xlink:href="#DejaVuSans-83"/>
       <use x="63.476562" xlink:href="#DejaVuSans-111"/>
       <use x="124.658203" xlink:href="#DejaVuSans-117"/>
       <use x="188.037109" xlink:href="#DejaVuSans-116"/>
       <use x="227.246094" xlink:href="#DejaVuSans-104"/>
       <use x="290.625" xlink:href="#DejaVuSans-32"/>
       <use x="322.412109" xlink:href="#DejaVuSans-67"/>
       <use x="392.236328" xlink:href="#DejaVuSans-97"/>
       <use x="453.515625" xlink:href="#DejaVuSans-114"/>
       <use x="492.378906" xlink:href="#DejaVuSans-111"/>
       <use x="553.560547" xlink:href="#DejaVuSans-108"/>
       <use x="581.34375" xlink:href="#DejaVuSans-105"/>
       <use x="609.126953" xlink:href="#DejaVuSans-110"/>
       <use x="672.505859" xlink:href="#DejaVuSans-97"/>
      </g>
     </g>
    </g>
    <g id="xtick_21">
     <g id="line2d_21">
      <g>
       <use style="stroke:#000000;stroke-width:0.8;" x="334.020898" xlink:href="#mb795c20b5c" y="387.72"/>
      </g>
     </g>
     <g id="text_21">
      <!-- New Hampshire -->
      <g transform="translate(336.780273 473.812187)rotate(-90)scale(0.1 -0.1)">
       <use xlink:href="#DejaVuSans-78"/>
       <use x="74.804688" xlink:href="#DejaVuSans-101"/>
       <use x="136.328125" xlink:href="#DejaVuSans-119"/>
       <use x="218.115234" xlink:href="#DejaVuSans-32"/>
       <use x="249.902344" xlink:href="#DejaVuSans-72"/>
       <use x="325.097656" xlink:href="#DejaVuSans-97"/>
       <use x="386.376953" xlink:href="#DejaVuSans-109"/>
       <use x="483.789062" xlink:href="#DejaVuSans-112"/>
       <use x="547.265625" xlink:href="#DejaVuSans-115"/>
       <use x="599.365234" xlink:href="#DejaVuSans-104"/>
       <use x="662.744141" xlink:href="#DejaVuSans-105"/>
       <use x="690.527344" xlink:href="#DejaVuSans-114"/>
       <use x="729.390625" xlink:href="#DejaVuSans-101"/>
      </g>
     </g>
    </g>
    <g id="xtick_22">
     <g id="line2d_22">
      <g>
       <use style="stroke:#000000;stroke-width:0.8;" x="346.003719" xlink:href="#mb795c20b5c" y="387.72"/>
      </g>
     </g>
     <g id="text_22">
      <!-- Oklahoma -->
      <g transform="translate(348.763094 445.61375)rotate(-90)scale(0.1 -0.1)">
       <defs>
        <path d="M 39.40625 66.21875 
Q 28.65625 66.21875 22.328125 58.203125 
Q 16.015625 50.203125 16.015625 36.375 
Q 16.015625 22.609375 22.328125 14.59375 
Q 28.65625 6.59375 39.40625 6.59375 
Q 50.140625 6.59375 56.421875 14.59375 
Q 62.703125 22.609375 62.703125 36.375 
Q 62.703125 50.203125 56.421875 58.203125 
Q 50.140625 66.21875 39.40625 66.21875 
z
M 39.40625 74.21875 
Q 54.734375 74.21875 63.90625 63.9375 
Q 73.09375 53.65625 73.09375 36.375 
Q 73.09375 19.140625 63.90625 8.859375 
Q 54.734375 -1.421875 39.40625 -1.421875 
Q 24.03125 -1.421875 14.8125 8.828125 
Q 5.609375 19.09375 5.609375 36.375 
Q 5.609375 53.65625 14.8125 63.9375 
Q 24.03125 74.21875 39.40625 74.21875 
z
" id="DejaVuSans-79"/>
       </defs>
       <use xlink:href="#DejaVuSans-79"/>
       <use x="78.710938" xlink:href="#DejaVuSans-107"/>
       <use x="136.621094" xlink:href="#DejaVuSans-108"/>
       <use x="164.404297" xlink:href="#DejaVuSans-97"/>
       <use x="225.683594" xlink:href="#DejaVuSans-104"/>
       <use x="289.0625" xlink:href="#DejaVuSans-111"/>
       <use x="350.244141" xlink:href="#DejaVuSans-109"/>
       <use x="447.65625" xlink:href="#DejaVuSans-97"/>
      </g>
     </g>
    </g>
    <g id="xtick_23">
     <g id="line2d_23">
      <g>
       <use style="stroke:#000000;stroke-width:0.8;" x="357.986539" xlink:href="#mb795c20b5c" y="387.72"/>
      </g>
     </g>
     <g id="text_23">
      <!-- Louisiana -->
      <g transform="translate(360.745914 441.9325)rotate(-90)scale(0.1 -0.1)">
       <defs>
        <path d="M 9.8125 72.90625 
L 19.671875 72.90625 
L 19.671875 8.296875 
L 55.171875 8.296875 
L 55.171875 0 
L 9.8125 0 
z
" id="DejaVuSans-76"/>
       </defs>
       <use xlink:href="#DejaVuSans-76"/>
       <use x="53.962891" xlink:href="#DejaVuSans-111"/>
       <use x="115.144531" xlink:href="#DejaVuSans-117"/>
       <use x="178.523438" xlink:href="#DejaVuSans-105"/>
       <use x="206.306641" xlink:href="#DejaVuSans-115"/>
       <use x="258.40625" xlink:href="#DejaVuSans-105"/>
       <use x="286.189453" xlink:href="#DejaVuSans-97"/>
       <use x="347.46875" xlink:href="#DejaVuSans-110"/>
       <use x="410.847656" xlink:href="#DejaVuSans-97"/>
      </g>
     </g>
    </g>
    <g id="xtick_24">
     <g id="line2d_24">
      <g>
       <use style="stroke:#000000;stroke-width:0.8;" x="369.969359" xlink:href="#mb795c20b5c" y="387.72"/>
      </g>
     </g>
     <g id="text_24">
      <!-- Kentucky -->
      <g transform="translate(372.728734 440.371562)rotate(-90)scale(0.1 -0.1)">
       <defs>
        <path d="M 9.8125 72.90625 
L 19.671875 72.90625 
L 19.671875 42.09375 
L 52.390625 72.90625 
L 65.09375 72.90625 
L 28.90625 38.921875 
L 67.671875 0 
L 54.6875 0 
L 19.671875 35.109375 
L 19.671875 0 
L 9.8125 0 
z
" id="DejaVuSans-75"/>
       </defs>
       <use xlink:href="#DejaVuSans-75"/>
       <use x="60.576172" xlink:href="#DejaVuSans-101"/>
       <use x="122.099609" xlink:href="#DejaVuSans-110"/>
       <use x="185.478516" xlink:href="#DejaVuSans-116"/>
       <use x="224.6875" xlink:href="#DejaVuSans-117"/>
       <use x="288.066406" xlink:href="#DejaVuSans-99"/>
       <use x="343.046875" xlink:href="#DejaVuSans-107"/>
       <use x="397.332031" xlink:href="#DejaVuSans-121"/>
      </g>
     </g>
    </g>
    <g id="xtick_25">
     <g id="line2d_25">
      <g>
       <use style="stroke:#000000;stroke-width:0.8;" x="381.95218" xlink:href="#mb795c20b5c" y="387.72"/>
      </g>
     </g>
     <g id="text_25">
      <!-- Kansas -->
      <g transform="translate(384.711555 430.115313)rotate(-90)scale(0.1 -0.1)">
       <use xlink:href="#DejaVuSans-75"/>
       <use x="63.826172" xlink:href="#DejaVuSans-97"/>
       <use x="125.105469" xlink:href="#DejaVuSans-110"/>
       <use x="188.484375" xlink:href="#DejaVuSans-115"/>
       <use x="240.583984" xlink:href="#DejaVuSans-97"/>
       <use x="301.863281" xlink:href="#DejaVuSans-115"/>
      </g>
     </g>
    </g>
    <g id="xtick_26">
     <g id="line2d_26">
      <g>
       <use style="stroke:#000000;stroke-width:0.8;" x="393.935" xlink:href="#mb795c20b5c" y="387.72"/>
      </g>
     </g>
     <g id="text_26">
      <!-- Tennessee -->
      <g transform="translate(396.694375 446.834063)rotate(-90)scale(0.1 -0.1)">
       <defs>
        <path d="M -0.296875 72.90625 
L 61.375 72.90625 
L 61.375 64.59375 
L 35.5 64.59375 
L 35.5 0 
L 25.59375 0 
L 25.59375 64.59375 
L -0.296875 64.59375 
z
" id="DejaVuSans-84"/>
       </defs>
       <use xlink:href="#DejaVuSans-84"/>
       <use x="44.083984" xlink:href="#DejaVuSans-101"/>
       <use x="105.607422" xlink:href="#DejaVuSans-110"/>
       <use x="168.986328" xlink:href="#DejaVuSans-110"/>
       <use x="232.365234" xlink:href="#DejaVuSans-101"/>
       <use x="293.888672" xlink:href="#DejaVuSans-115"/>
       <use x="345.988281" xlink:href="#DejaVuSans-115"/>
       <use x="398.087891" xlink:href="#DejaVuSans-101"/>
       <use x="459.611328" xlink:href="#DejaVuSans-101"/>
      </g>
     </g>
    </g>
    <g id="xtick_27">
     <g id="line2d_27">
      <g>
       <use style="stroke:#000000;stroke-width:0.8;" x="405.91782" xlink:href="#mb795c20b5c" y="387.72"/>
      </g>
     </g>
     <g id="text_27">
      <!-- Iowa -->
      <g transform="translate(408.677195 418.095)rotate(-90)scale(0.1 -0.1)">
       <use xlink:href="#DejaVuSans-73"/>
       <use x="29.492188" xlink:href="#DejaVuSans-111"/>
       <use x="90.673828" xlink:href="#DejaVuSans-119"/>
       <use x="172.460938" xlink:href="#DejaVuSans-97"/>
      </g>
     </g>
    </g>
    <g id="xtick_28">
     <g id="line2d_28">
      <g>
       <use style="stroke:#000000;stroke-width:0.8;" x="417.900641" xlink:href="#mb795c20b5c" y="387.72"/>
      </g>
     </g>
     <g id="text_28">
      <!-- Oregon -->
      <g transform="translate(420.660016 431.435625)rotate(-90)scale(0.1 -0.1)">
       <use xlink:href="#DejaVuSans-79"/>
       <use x="78.710938" xlink:href="#DejaVuSans-114"/>
       <use x="117.574219" xlink:href="#DejaVuSans-101"/>
       <use x="179.097656" xlink:href="#DejaVuSans-103"/>
       <use x="242.574219" xlink:href="#DejaVuSans-111"/>
       <use x="303.755859" xlink:href="#DejaVuSans-110"/>
      </g>
     </g>
    </g>
    <g id="xtick_29">
     <g id="line2d_29">
      <g>
       <use style="stroke:#000000;stroke-width:0.8;" x="429.883461" xlink:href="#mb795c20b5c" y="387.72"/>
      </g>
     </g>
     <g id="text_29">
      <!-- Utah -->
      <g transform="translate(432.642836 418.424688)rotate(-90)scale(0.1 -0.1)">
       <defs>
        <path d="M 8.6875 72.90625 
L 18.609375 72.90625 
L 18.609375 28.609375 
Q 18.609375 16.890625 22.84375 11.734375 
Q 27.09375 6.59375 36.625 6.59375 
Q 46.09375 6.59375 50.34375 11.734375 
Q 54.59375 16.890625 54.59375 28.609375 
L 54.59375 72.90625 
L 64.5 72.90625 
L 64.5 27.390625 
Q 64.5 13.140625 57.4375 5.859375 
Q 50.390625 -1.421875 36.625 -1.421875 
Q 22.796875 -1.421875 15.734375 5.859375 
Q 8.6875 13.140625 8.6875 27.390625 
z
" id="DejaVuSans-85"/>
       </defs>
       <use xlink:href="#DejaVuSans-85"/>
       <use x="73.193359" xlink:href="#DejaVuSans-116"/>
       <use x="112.402344" xlink:href="#DejaVuSans-97"/>
       <use x="173.681641" xlink:href="#DejaVuSans-104"/>
      </g>
     </g>
    </g>
    <g id="xtick_30">
     <g id="line2d_30">
      <g>
       <use style="stroke:#000000;stroke-width:0.8;" x="441.866281" xlink:href="#mb795c20b5c" y="387.72"/>
      </g>
     </g>
     <g id="text_30">
      <!-- Arizona -->
      <g transform="translate(444.625656 432.2825)rotate(-90)scale(0.1 -0.1)">
       <defs>
        <path d="M 5.515625 54.6875 
L 48.1875 54.6875 
L 48.1875 46.484375 
L 14.40625 7.171875 
L 48.1875 7.171875 
L 48.1875 0 
L 4.296875 0 
L 4.296875 8.203125 
L 38.09375 47.515625 
L 5.515625 47.515625 
z
" id="DejaVuSans-122"/>
       </defs>
       <use xlink:href="#DejaVuSans-65"/>
       <use x="68.408203" xlink:href="#DejaVuSans-114"/>
       <use x="109.521484" xlink:href="#DejaVuSans-105"/>
       <use x="137.304688" xlink:href="#DejaVuSans-122"/>
       <use x="189.794922" xlink:href="#DejaVuSans-111"/>
       <use x="250.976562" xlink:href="#DejaVuSans-110"/>
       <use x="314.355469" xlink:href="#DejaVuSans-97"/>
      </g>
     </g>
    </g>
    <g id="xtick_31">
     <g id="line2d_31">
      <g>
       <use style="stroke:#000000;stroke-width:0.8;" x="453.849102" xlink:href="#mb795c20b5c" y="387.72"/>
      </g>
     </g>
     <g id="text_31">
      <!-- Missouri -->
      <g transform="translate(456.608477 435.890312)rotate(-90)scale(0.1 -0.1)">
       <use xlink:href="#DejaVuSans-77"/>
       <use x="86.279297" xlink:href="#DejaVuSans-105"/>
       <use x="114.0625" xlink:href="#DejaVuSans-115"/>
       <use x="166.162109" xlink:href="#DejaVuSans-115"/>
       <use x="218.261719" xlink:href="#DejaVuSans-111"/>
       <use x="279.443359" xlink:href="#DejaVuSans-117"/>
       <use x="342.822266" xlink:href="#DejaVuSans-114"/>
       <use x="383.935547" xlink:href="#DejaVuSans-105"/>
      </g>
     </g>
    </g>
    <g id="xtick_32">
     <g id="line2d_32">
      <g>
       <use style="stroke:#000000;stroke-width:0.8;" x="465.831922" xlink:href="#mb795c20b5c" y="387.72"/>
      </g>
     </g>
     <g id="text_32">
      <!-- Georgia -->
      <g transform="translate(468.591297 433.930938)rotate(-90)scale(0.1 -0.1)">
       <defs>
        <path d="M 59.515625 10.40625 
L 59.515625 29.984375 
L 43.40625 29.984375 
L 43.40625 38.09375 
L 69.28125 38.09375 
L 69.28125 6.78125 
Q 63.578125 2.734375 56.6875 0.65625 
Q 49.8125 -1.421875 42 -1.421875 
Q 24.90625 -1.421875 15.25 8.5625 
Q 5.609375 18.5625 5.609375 36.375 
Q 5.609375 54.25 15.25 64.234375 
Q 24.90625 74.21875 42 74.21875 
Q 49.125 74.21875 55.546875 72.453125 
Q 61.96875 70.703125 67.390625 67.28125 
L 67.390625 56.78125 
Q 61.921875 61.421875 55.765625 63.765625 
Q 49.609375 66.109375 42.828125 66.109375 
Q 29.4375 66.109375 22.71875 58.640625 
Q 16.015625 51.171875 16.015625 36.375 
Q 16.015625 21.625 22.71875 14.15625 
Q 29.4375 6.6875 42.828125 6.6875 
Q 48.046875 6.6875 52.140625 7.59375 
Q 56.25 8.5 59.515625 10.40625 
z
" id="DejaVuSans-71"/>
       </defs>
       <use xlink:href="#DejaVuSans-71"/>
       <use x="77.490234" xlink:href="#DejaVuSans-101"/>
       <use x="139.013672" xlink:href="#DejaVuSans-111"/>
       <use x="200.195312" xlink:href="#DejaVuSans-114"/>
       <use x="239.558594" xlink:href="#DejaVuSans-103"/>
       <use x="303.035156" xlink:href="#DejaVuSans-105"/>
       <use x="330.818359" xlink:href="#DejaVuSans-97"/>
      </g>
     </g>
    </g>
    <g id="xtick_33">
     <g id="line2d_33">
      <g>
       <use style="stroke:#000000;stroke-width:0.8;" x="477.814742" xlink:href="#mb795c20b5c" y="387.72"/>
      </g>
     </g>
     <g id="text_33">
      <!-- Connecticut -->
      <g transform="translate(480.574117 454.602813)rotate(-90)scale(0.1 -0.1)">
       <use xlink:href="#DejaVuSans-67"/>
       <use x="69.824219" xlink:href="#DejaVuSans-111"/>
       <use x="131.005859" xlink:href="#DejaVuSans-110"/>
       <use x="194.384766" xlink:href="#DejaVuSans-110"/>
       <use x="257.763672" xlink:href="#DejaVuSans-101"/>
       <use x="319.287109" xlink:href="#DejaVuSans-99"/>
       <use x="374.267578" xlink:href="#DejaVuSans-116"/>
       <use x="413.476562" xlink:href="#DejaVuSans-105"/>
       <use x="441.259766" xlink:href="#DejaVuSans-99"/>
       <use x="496.240234" xlink:href="#DejaVuSans-117"/>
       <use x="559.619141" xlink:href="#DejaVuSans-116"/>
      </g>
     </g>
    </g>
    <g id="xtick_34">
     <g id="line2d_34">
      <g>
       <use style="stroke:#000000;stroke-width:0.8;" x="489.797563" xlink:href="#mb795c20b5c" y="387.72"/>
      </g>
     </g>
     <g id="text_34">
      <!-- Maryland -->
      <g transform="translate(492.556938 441.098125)rotate(-90)scale(0.1 -0.1)">
       <use xlink:href="#DejaVuSans-77"/>
       <use x="86.279297" xlink:href="#DejaVuSans-97"/>
       <use x="147.558594" xlink:href="#DejaVuSans-114"/>
       <use x="188.671875" xlink:href="#DejaVuSans-121"/>
       <use x="247.851562" xlink:href="#DejaVuSans-108"/>
       <use x="275.634766" xlink:href="#DejaVuSans-97"/>
       <use x="336.914062" xlink:href="#DejaVuSans-110"/>
       <use x="400.292969" xlink:href="#DejaVuSans-100"/>
      </g>
     </g>
    </g>
    <g id="xtick_35">
     <g id="line2d_35">
      <g>
       <use style="stroke:#000000;stroke-width:0.8;" x="501.780383" xlink:href="#mb795c20b5c" y="387.72"/>
      </g>
     </g>
     <g id="text_35">
      <!-- Colorado -->
      <g transform="translate(504.539758 439.424688)rotate(-90)scale(0.1 -0.1)">
       <use xlink:href="#DejaVuSans-67"/>
       <use x="69.824219" xlink:href="#DejaVuSans-111"/>
       <use x="131.005859" xlink:href="#DejaVuSans-108"/>
       <use x="158.789062" xlink:href="#DejaVuSans-111"/>
       <use x="219.970703" xlink:href="#DejaVuSans-114"/>
       <use x="261.083984" xlink:href="#DejaVuSans-97"/>
       <use x="322.363281" xlink:href="#DejaVuSans-100"/>
       <use x="385.839844" xlink:href="#DejaVuSans-111"/>
      </g>
     </g>
    </g>
    <g id="xtick_36">
     <g id="line2d_36">
      <g>
       <use style="stroke:#000000;stroke-width:0.8;" x="513.763203" xlink:href="#mb795c20b5c" y="387.72"/>
      </g>
     </g>
     <g id="text_36">
      <!-- North Carolina -->
      <g transform="translate(516.522578 467.004375)rotate(-90)scale(0.1 -0.1)">
       <use xlink:href="#DejaVuSans-78"/>
       <use x="74.804688" xlink:href="#DejaVuSans-111"/>
       <use x="135.986328" xlink:href="#DejaVuSans-114"/>
       <use x="177.099609" xlink:href="#DejaVuSans-116"/>
       <use x="216.308594" xlink:href="#DejaVuSans-104"/>
       <use x="279.6875" xlink:href="#DejaVuSans-32"/>
       <use x="311.474609" xlink:href="#DejaVuSans-67"/>
       <use x="381.298828" xlink:href="#DejaVuSans-97"/>
       <use x="442.578125" xlink:href="#DejaVuSans-114"/>
       <use x="481.441406" xlink:href="#DejaVuSans-111"/>
       <use x="542.623047" xlink:href="#DejaVuSans-108"/>
       <use x="570.40625" xlink:href="#DejaVuSans-105"/>
       <use x="598.189453" xlink:href="#DejaVuSans-110"/>
       <use x="661.568359" xlink:href="#DejaVuSans-97"/>
      </g>
     </g>
    </g>
    <g id="xtick_37">
     <g id="line2d_37">
      <g>
       <use style="stroke:#000000;stroke-width:0.8;" x="525.746024" xlink:href="#mb795c20b5c" y="387.72"/>
      </g>
     </g>
     <g id="text_37">
      <!-- Virginia -->
      <g transform="translate(528.505399 432.42)rotate(-90)scale(0.1 -0.1)">
       <use xlink:href="#DejaVuSans-86"/>
       <use x="66.158203" xlink:href="#DejaVuSans-105"/>
       <use x="93.941406" xlink:href="#DejaVuSans-114"/>
       <use x="133.304688" xlink:href="#DejaVuSans-103"/>
       <use x="196.78125" xlink:href="#DejaVuSans-105"/>
       <use x="224.564453" xlink:href="#DejaVuSans-110"/>
       <use x="287.943359" xlink:href="#DejaVuSans-105"/>
       <use x="315.726562" xlink:href="#DejaVuSans-97"/>
      </g>
     </g>
    </g>
    <g id="xtick_38">
     <g id="line2d_38">
      <g>
       <use style="stroke:#000000;stroke-width:0.8;" x="537.728844" xlink:href="#mb795c20b5c" y="387.72"/>
      </g>
     </g>
     <g id="text_38">
      <!-- Indiana -->
      <g transform="translate(540.488219 431.727813)rotate(-90)scale(0.1 -0.1)">
       <use xlink:href="#DejaVuSans-73"/>
       <use x="29.492188" xlink:href="#DejaVuSans-110"/>
       <use x="92.871094" xlink:href="#DejaVuSans-100"/>
       <use x="156.347656" xlink:href="#DejaVuSans-105"/>
       <use x="184.130859" xlink:href="#DejaVuSans-97"/>
       <use x="245.410156" xlink:href="#DejaVuSans-110"/>
       <use x="308.789062" xlink:href="#DejaVuSans-97"/>
      </g>
     </g>
    </g>
    <g id="xtick_39">
     <g id="line2d_39">
      <g>
       <use style="stroke:#000000;stroke-width:0.8;" x="549.711664" xlink:href="#mb795c20b5c" y="387.72"/>
      </g>
     </g>
     <g id="text_39">
      <!-- Washington -->
      <g transform="translate(552.471039 453.485625)rotate(-90)scale(0.1 -0.1)">
       <use xlink:href="#DejaVuSans-87"/>
       <use x="92.501953" xlink:href="#DejaVuSans-97"/>
       <use x="153.78125" xlink:href="#DejaVuSans-115"/>
       <use x="205.880859" xlink:href="#DejaVuSans-104"/>
       <use x="269.259766" xlink:href="#DejaVuSans-105"/>
       <use x="297.042969" xlink:href="#DejaVuSans-110"/>
       <use x="360.421875" xlink:href="#DejaVuSans-103"/>
       <use x="423.898438" xlink:href="#DejaVuSans-116"/>
       <use x="463.107422" xlink:href="#DejaVuSans-111"/>
       <use x="524.289062" xlink:href="#DejaVuSans-110"/>
      </g>
     </g>
    </g>
    <g id="xtick_40">
     <g id="line2d_40">
      <g>
       <use style="stroke:#000000;stroke-width:0.8;" x="561.694485" xlink:href="#mb795c20b5c" y="387.72"/>
      </g>
     </g>
     <g id="text_40">
      <!-- Florida -->
      <g transform="translate(564.45386 428.734062)rotate(-90)scale(0.1 -0.1)">
       <defs>
        <path d="M 9.8125 72.90625 
L 51.703125 72.90625 
L 51.703125 64.59375 
L 19.671875 64.59375 
L 19.671875 43.109375 
L 48.578125 43.109375 
L 48.578125 34.8125 
L 19.671875 34.8125 
L 19.671875 0 
L 9.8125 0 
z
" id="DejaVuSans-70"/>
       </defs>
       <use xlink:href="#DejaVuSans-70"/>
       <use x="57.519531" xlink:href="#DejaVuSans-108"/>
       <use x="85.302734" xlink:href="#DejaVuSans-111"/>
       <use x="146.484375" xlink:href="#DejaVuSans-114"/>
       <use x="187.597656" xlink:href="#DejaVuSans-105"/>
       <use x="215.380859" xlink:href="#DejaVuSans-100"/>
       <use x="278.857422" xlink:href="#DejaVuSans-97"/>
      </g>
     </g>
    </g>
    <g id="xtick_41">
     <g id="line2d_41">
      <g>
       <use style="stroke:#000000;stroke-width:0.8;" x="573.677305" xlink:href="#mb795c20b5c" y="387.72"/>
      </g>
     </g>
     <g id="text_41">
      <!-- Massachusetts -->
      <g transform="translate(576.43668 468.609062)rotate(-90)scale(0.1 -0.1)">
       <use xlink:href="#DejaVuSans-77"/>
       <use x="86.279297" xlink:href="#DejaVuSans-97"/>
       <use x="147.558594" xlink:href="#DejaVuSans-115"/>
       <use x="199.658203" xlink:href="#DejaVuSans-115"/>
       <use x="251.757812" xlink:href="#DejaVuSans-97"/>
       <use x="313.037109" xlink:href="#DejaVuSans-99"/>
       <use x="368.017578" xlink:href="#DejaVuSans-104"/>
       <use x="431.396484" xlink:href="#DejaVuSans-117"/>
       <use x="494.775391" xlink:href="#DejaVuSans-115"/>
       <use x="546.875" xlink:href="#DejaVuSans-101"/>
       <use x="608.398438" xlink:href="#DejaVuSans-116"/>
       <use x="647.607422" xlink:href="#DejaVuSans-116"/>
       <use x="686.816406" xlink:href="#DejaVuSans-115"/>
      </g>
     </g>
    </g>
    <g id="xtick_42">
     <g id="line2d_42">
      <g>
       <use style="stroke:#000000;stroke-width:0.8;" x="585.660125" xlink:href="#mb795c20b5c" y="387.72"/>
      </g>
     </g>
     <g id="text_42">
      <!-- Wisconsin -->
      <g transform="translate(588.4195 444.649688)rotate(-90)scale(0.1 -0.1)">
       <use xlink:href="#DejaVuSans-87"/>
       <use x="96.626953" xlink:href="#DejaVuSans-105"/>
       <use x="124.410156" xlink:href="#DejaVuSans-115"/>
       <use x="176.509766" xlink:href="#DejaVuSans-99"/>
       <use x="231.490234" xlink:href="#DejaVuSans-111"/>
       <use x="292.671875" xlink:href="#DejaVuSans-110"/>
       <use x="356.050781" xlink:href="#DejaVuSans-115"/>
       <use x="408.150391" xlink:href="#DejaVuSans-105"/>
       <use x="435.933594" xlink:href="#DejaVuSans-110"/>
      </g>
     </g>
    </g>
    <g id="xtick_43">
     <g id="line2d_43">
      <g>
       <use style="stroke:#000000;stroke-width:0.8;" x="597.642946" xlink:href="#mb795c20b5c" y="387.72"/>
      </g>
     </g>
     <g id="text_43">
      <!-- Minnesota -->
      <g transform="translate(600.402321 446.330938)rotate(-90)scale(0.1 -0.1)">
       <use xlink:href="#DejaVuSans-77"/>
       <use x="86.279297" xlink:href="#DejaVuSans-105"/>
       <use x="114.0625" xlink:href="#DejaVuSans-110"/>
       <use x="177.441406" xlink:href="#DejaVuSans-110"/>
       <use x="240.820312" xlink:href="#DejaVuSans-101"/>
       <use x="302.34375" xlink:href="#DejaVuSans-115"/>
       <use x="354.443359" xlink:href="#DejaVuSans-111"/>
       <use x="415.625" xlink:href="#DejaVuSans-116"/>
       <use x="454.833984" xlink:href="#DejaVuSans-97"/>
      </g>
     </g>
    </g>
    <g id="xtick_44">
     <g id="line2d_44">
      <g>
       <use style="stroke:#000000;stroke-width:0.8;" x="609.625766" xlink:href="#mb795c20b5c" y="387.72"/>
      </g>
     </g>
     <g id="text_44">
      <!-- New Jersey -->
      <g transform="translate(612.385141 450.205938)rotate(-90)scale(0.1 -0.1)">
       <defs>
        <path d="M 9.8125 72.90625 
L 19.671875 72.90625 
L 19.671875 5.078125 
Q 19.671875 -8.109375 14.671875 -14.0625 
Q 9.671875 -20.015625 -1.421875 -20.015625 
L -5.171875 -20.015625 
L -5.171875 -11.71875 
L -2.09375 -11.71875 
Q 4.4375 -11.71875 7.125 -8.046875 
Q 9.8125 -4.390625 9.8125 5.078125 
z
" id="DejaVuSans-74"/>
       </defs>
       <use xlink:href="#DejaVuSans-78"/>
       <use x="74.804688" xlink:href="#DejaVuSans-101"/>
       <use x="136.328125" xlink:href="#DejaVuSans-119"/>
       <use x="218.115234" xlink:href="#DejaVuSans-32"/>
       <use x="249.902344" xlink:href="#DejaVuSans-74"/>
       <use x="279.394531" xlink:href="#DejaVuSans-101"/>
       <use x="340.917969" xlink:href="#DejaVuSans-114"/>
       <use x="382.03125" xlink:href="#DejaVuSans-115"/>
       <use x="434.130859" xlink:href="#DejaVuSans-101"/>
       <use x="495.654297" xlink:href="#DejaVuSans-121"/>
      </g>
     </g>
    </g>
    <g id="xtick_45">
     <g id="line2d_45">
      <g>
       <use style="stroke:#000000;stroke-width:0.8;" x="621.608586" xlink:href="#mb795c20b5c" y="387.72"/>
      </g>
     </g>
     <g id="text_45">
      <!-- Ohio -->
      <g transform="translate(624.367961 417.82625)rotate(-90)scale(0.1 -0.1)">
       <use xlink:href="#DejaVuSans-79"/>
       <use x="78.710938" xlink:href="#DejaVuSans-104"/>
       <use x="142.089844" xlink:href="#DejaVuSans-105"/>
       <use x="169.873047" xlink:href="#DejaVuSans-111"/>
      </g>
     </g>
    </g>
    <g id="xtick_46">
     <g id="line2d_46">
      <g>
       <use style="stroke:#000000;stroke-width:0.8;" x="633.591407" xlink:href="#mb795c20b5c" y="387.72"/>
      </g>
     </g>
     <g id="text_46">
      <!-- Pennsylvania -->
      <g transform="translate(636.350782 460.412188)rotate(-90)scale(0.1 -0.1)">
       <defs>
        <path d="M 19.671875 64.796875 
L 19.671875 37.40625 
L 32.078125 37.40625 
Q 38.96875 37.40625 42.71875 40.96875 
Q 46.484375 44.53125 46.484375 51.125 
Q 46.484375 57.671875 42.71875 61.234375 
Q 38.96875 64.796875 32.078125 64.796875 
z
M 9.8125 72.90625 
L 32.078125 72.90625 
Q 44.34375 72.90625 50.609375 67.359375 
Q 56.890625 61.8125 56.890625 51.125 
Q 56.890625 40.328125 50.609375 34.8125 
Q 44.34375 29.296875 32.078125 29.296875 
L 19.671875 29.296875 
L 19.671875 0 
L 9.8125 0 
z
" id="DejaVuSans-80"/>
       </defs>
       <use xlink:href="#DejaVuSans-80"/>
       <use x="56.677734" xlink:href="#DejaVuSans-101"/>
       <use x="118.201172" xlink:href="#DejaVuSans-110"/>
       <use x="181.580078" xlink:href="#DejaVuSans-110"/>
       <use x="244.958984" xlink:href="#DejaVuSans-115"/>
       <use x="297.058594" xlink:href="#DejaVuSans-121"/>
       <use x="356.238281" xlink:href="#DejaVuSans-108"/>
       <use x="384.021484" xlink:href="#DejaVuSans-118"/>
       <use x="443.201172" xlink:href="#DejaVuSans-97"/>
       <use x="504.480469" xlink:href="#DejaVuSans-110"/>
       <use x="567.859375" xlink:href="#DejaVuSans-105"/>
       <use x="595.642578" xlink:href="#DejaVuSans-97"/>
      </g>
     </g>
    </g>
    <g id="xtick_47">
     <g id="line2d_47">
      <g>
       <use style="stroke:#000000;stroke-width:0.8;" x="645.574227" xlink:href="#mb795c20b5c" y="387.72"/>
      </g>
     </g>
     <g id="text_47">
      <!-- Illinois -->
      <g transform="translate(648.333602 426.448125)rotate(-90)scale(0.1 -0.1)">
       <use xlink:href="#DejaVuSans-73"/>
       <use x="29.492188" xlink:href="#DejaVuSans-108"/>
       <use x="57.275391" xlink:href="#DejaVuSans-108"/>
       <use x="85.058594" xlink:href="#DejaVuSans-105"/>
       <use x="112.841797" xlink:href="#DejaVuSans-110"/>
       <use x="176.220703" xlink:href="#DejaVuSans-111"/>
       <use x="237.402344" xlink:href="#DejaVuSans-105"/>
       <use x="265.185547" xlink:href="#DejaVuSans-115"/>
      </g>
     </g>
    </g>
    <g id="xtick_48">
     <g id="line2d_48">
      <g>
       <use style="stroke:#000000;stroke-width:0.8;" x="657.557047" xlink:href="#mb795c20b5c" y="387.72"/>
      </g>
     </g>
     <g id="text_48">
      <!-- Texas -->
      <g transform="translate(660.316422 422.362188)rotate(-90)scale(0.1 -0.1)">
       <use xlink:href="#DejaVuSans-84"/>
       <use x="44.083984" xlink:href="#DejaVuSans-101"/>
       <use x="103.857422" xlink:href="#DejaVuSans-120"/>
       <use x="163.037109" xlink:href="#DejaVuSans-97"/>
       <use x="224.316406" xlink:href="#DejaVuSans-115"/>
      </g>
     </g>
    </g>
    <g id="xtick_49">
     <g id="line2d_49">
      <g>
       <use style="stroke:#000000;stroke-width:0.8;" x="669.539868" xlink:href="#mb795c20b5c" y="387.72"/>
      </g>
     </g>
     <g id="text_49">
      <!-- Michigan -->
      <g transform="translate(672.299243 439.554375)rotate(-90)scale(0.1 -0.1)">
       <use xlink:href="#DejaVuSans-77"/>
       <use x="86.279297" xlink:href="#DejaVuSans-105"/>
       <use x="114.0625" xlink:href="#DejaVuSans-99"/>
       <use x="169.042969" xlink:href="#DejaVuSans-104"/>
       <use x="232.421875" xlink:href="#DejaVuSans-105"/>
       <use x="260.205078" xlink:href="#DejaVuSans-103"/>
       <use x="323.681641" xlink:href="#DejaVuSans-97"/>
       <use x="384.960938" xlink:href="#DejaVuSans-110"/>
      </g>
     </g>
    </g>
    <g id="xtick_50">
     <g id="line2d_50">
      <g>
       <use style="stroke:#000000;stroke-width:0.8;" x="681.522688" xlink:href="#mb795c20b5c" y="387.72"/>
      </g>
     </g>
     <g id="text_50">
      <!-- New York -->
      <g transform="translate(684.282063 440.51375)rotate(-90)scale(0.1 -0.1)">
       <defs>
        <path d="M -0.203125 72.90625 
L 10.40625 72.90625 
L 30.609375 42.921875 
L 50.6875 72.90625 
L 61.28125 72.90625 
L 35.5 34.71875 
L 35.5 0 
L 25.59375 0 
L 25.59375 34.71875 
z
" id="DejaVuSans-89"/>
       </defs>
       <use xlink:href="#DejaVuSans-78"/>
       <use x="74.804688" xlink:href="#DejaVuSans-101"/>
       <use x="136.328125" xlink:href="#DejaVuSans-119"/>
       <use x="218.115234" xlink:href="#DejaVuSans-32"/>
       <use x="249.902344" xlink:href="#DejaVuSans-89"/>
       <use x="297.736328" xlink:href="#DejaVuSans-111"/>
       <use x="358.917969" xlink:href="#DejaVuSans-114"/>
       <use x="400.03125" xlink:href="#DejaVuSans-107"/>
      </g>
     </g>
    </g>
    <g id="xtick_51">
     <g id="line2d_51">
      <g>
       <use style="stroke:#000000;stroke-width:0.8;" x="693.505508" xlink:href="#mb795c20b5c" y="387.72"/>
      </g>
     </g>
     <g id="text_51">
      <!-- California -->
      <g transform="translate(696.264883 442.205938)rotate(-90)scale(0.1 -0.1)">
       <use xlink:href="#DejaVuSans-67"/>
       <use x="69.824219" xlink:href="#DejaVuSans-97"/>
       <use x="131.103516" xlink:href="#DejaVuSans-108"/>
       <use x="158.886719" xlink:href="#DejaVuSans-105"/>
       <use x="186.669922" xlink:href="#DejaVuSans-102"/>
       <use x="221.875" xlink:href="#DejaVuSans-111"/>
       <use x="283.056641" xlink:href="#DejaVuSans-114"/>
       <use x="322.419922" xlink:href="#DejaVuSans-110"/>
       <use x="385.798828" xlink:href="#DejaVuSans-105"/>
       <use x="413.582031" xlink:href="#DejaVuSans-97"/>
      </g>
     </g>
    </g>
    <g id="text_52">
     <!-- state -->
     <g transform="translate(373.67 510.000938)scale(0.16 -0.16)">
      <use xlink:href="#DejaVuSans-115"/>
      <use x="52.099609" xlink:href="#DejaVuSans-116"/>
      <use x="91.308594" xlink:href="#DejaVuSans-97"/>
      <use x="152.587891" xlink:href="#DejaVuSans-116"/>
      <use x="191.796875" xlink:href="#DejaVuSans-101"/>
     </g>
    </g>
   </g>
   <g id="matplotlib.axis_2">
    <g id="ytick_1">
     <g id="line2d_52">
      <defs>
       <path d="M 0 0 
L -3.5 0 
" id="m75a29ec700" style="stroke:#000000;stroke-width:0.8;"/>
      </defs>
      <g>
       <use style="stroke:#000000;stroke-width:0.8;" x="59.135" xlink:href="#m75a29ec700" y="387.72"/>
      </g>
     </g>
     <g id="text_53">
      <!-- 0 -->
      <g transform="translate(45.7725 391.519219)scale(0.1 -0.1)">
       <defs>
        <path d="M 31.78125 66.40625 
Q 24.171875 66.40625 20.328125 58.90625 
Q 16.5 51.421875 16.5 36.375 
Q 16.5 21.390625 20.328125 13.890625 
Q 24.171875 6.390625 31.78125 6.390625 
Q 39.453125 6.390625 43.28125 13.890625 
Q 47.125 21.390625 47.125 36.375 
Q 47.125 51.421875 43.28125 58.90625 
Q 39.453125 66.40625 31.78125 66.40625 
z
M 31.78125 74.21875 
Q 44.046875 74.21875 50.515625 64.515625 
Q 56.984375 54.828125 56.984375 36.375 
Q 56.984375 17.96875 50.515625 8.265625 
Q 44.046875 -1.421875 31.78125 -1.421875 
Q 19.53125 -1.421875 13.0625 8.265625 
Q 6.59375 17.96875 6.59375 36.375 
Q 6.59375 54.828125 13.0625 64.515625 
Q 19.53125 74.21875 31.78125 74.21875 
z
" id="DejaVuSans-48"/>
       </defs>
       <use xlink:href="#DejaVuSans-48"/>
      </g>
     </g>
    </g>
    <g id="ytick_2">
     <g id="line2d_53">
      <g>
       <use style="stroke:#000000;stroke-width:0.8;" x="59.135" xlink:href="#m75a29ec700" y="333.199164"/>
      </g>
     </g>
     <g id="text_54">
      <!-- 1000 -->
      <g transform="translate(26.685 336.998382)scale(0.1 -0.1)">
       <defs>
        <path d="M 12.40625 8.296875 
L 28.515625 8.296875 
L 28.515625 63.921875 
L 10.984375 60.40625 
L 10.984375 69.390625 
L 28.421875 72.90625 
L 38.28125 72.90625 
L 38.28125 8.296875 
L 54.390625 8.296875 
L 54.390625 0 
L 12.40625 0 
z
" id="DejaVuSans-49"/>
       </defs>
       <use xlink:href="#DejaVuSans-49"/>
       <use x="63.623047" xlink:href="#DejaVuSans-48"/>
       <use x="127.246094" xlink:href="#DejaVuSans-48"/>
       <use x="190.869141" xlink:href="#DejaVuSans-48"/>
      </g>
     </g>
    </g>
    <g id="ytick_3">
     <g id="line2d_54">
      <g>
       <use style="stroke:#000000;stroke-width:0.8;" x="59.135" xlink:href="#m75a29ec700" y="278.678327"/>
      </g>
     </g>
     <g id="text_55">
      <!-- 2000 -->
      <g transform="translate(26.685 282.477546)scale(0.1 -0.1)">
       <defs>
        <path d="M 19.1875 8.296875 
L 53.609375 8.296875 
L 53.609375 0 
L 7.328125 0 
L 7.328125 8.296875 
Q 12.9375 14.109375 22.625 23.890625 
Q 32.328125 33.6875 34.8125 36.53125 
Q 39.546875 41.84375 41.421875 45.53125 
Q 43.3125 49.21875 43.3125 52.78125 
Q 43.3125 58.59375 39.234375 62.25 
Q 35.15625 65.921875 28.609375 65.921875 
Q 23.96875 65.921875 18.8125 64.3125 
Q 13.671875 62.703125 7.8125 59.421875 
L 7.8125 69.390625 
Q 13.765625 71.78125 18.9375 73 
Q 24.125 74.21875 28.421875 74.21875 
Q 39.75 74.21875 46.484375 68.546875 
Q 53.21875 62.890625 53.21875 53.421875 
Q 53.21875 48.921875 51.53125 44.890625 
Q 49.859375 40.875 45.40625 35.40625 
Q 44.1875 33.984375 37.640625 27.21875 
Q 31.109375 20.453125 19.1875 8.296875 
z
" id="DejaVuSans-50"/>
       </defs>
       <use xlink:href="#DejaVuSans-50"/>
       <use x="63.623047" xlink:href="#DejaVuSans-48"/>
       <use x="127.246094" xlink:href="#DejaVuSans-48"/>
       <use x="190.869141" xlink:href="#DejaVuSans-48"/>
      </g>
     </g>
    </g>
    <g id="ytick_4">
     <g id="line2d_55">
      <g>
       <use style="stroke:#000000;stroke-width:0.8;" x="59.135" xlink:href="#m75a29ec700" y="224.157491"/>
      </g>
     </g>
     <g id="text_56">
      <!-- 3000 -->
      <g transform="translate(26.685 227.956709)scale(0.1 -0.1)">
       <defs>
        <path d="M 40.578125 39.3125 
Q 47.65625 37.796875 51.625 33 
Q 55.609375 28.21875 55.609375 21.1875 
Q 55.609375 10.40625 48.1875 4.484375 
Q 40.765625 -1.421875 27.09375 -1.421875 
Q 22.515625 -1.421875 17.65625 -0.515625 
Q 12.796875 0.390625 7.625 2.203125 
L 7.625 11.71875 
Q 11.71875 9.328125 16.59375 8.109375 
Q 21.484375 6.890625 26.8125 6.890625 
Q 36.078125 6.890625 40.9375 10.546875 
Q 45.796875 14.203125 45.796875 21.1875 
Q 45.796875 27.640625 41.28125 31.265625 
Q 36.765625 34.90625 28.71875 34.90625 
L 20.21875 34.90625 
L 20.21875 43.015625 
L 29.109375 43.015625 
Q 36.375 43.015625 40.234375 45.921875 
Q 44.09375 48.828125 44.09375 54.296875 
Q 44.09375 59.90625 40.109375 62.90625 
Q 36.140625 65.921875 28.71875 65.921875 
Q 24.65625 65.921875 20.015625 65.03125 
Q 15.375 64.15625 9.8125 62.3125 
L 9.8125 71.09375 
Q 15.4375 72.65625 20.34375 73.4375 
Q 25.25 74.21875 29.59375 74.21875 
Q 40.828125 74.21875 47.359375 69.109375 
Q 53.90625 64.015625 53.90625 55.328125 
Q 53.90625 49.265625 50.4375 45.09375 
Q 46.96875 40.921875 40.578125 39.3125 
z
" id="DejaVuSans-51"/>
       </defs>
       <use xlink:href="#DejaVuSans-51"/>
       <use x="63.623047" xlink:href="#DejaVuSans-48"/>
       <use x="127.246094" xlink:href="#DejaVuSans-48"/>
       <use x="190.869141" xlink:href="#DejaVuSans-48"/>
      </g>
     </g>
    </g>
    <g id="ytick_5">
     <g id="line2d_56">
      <g>
       <use style="stroke:#000000;stroke-width:0.8;" x="59.135" xlink:href="#m75a29ec700" y="169.636654"/>
      </g>
     </g>
     <g id="text_57">
      <!-- 4000 -->
      <g transform="translate(26.685 173.435873)scale(0.1 -0.1)">
       <defs>
        <path d="M 37.796875 64.3125 
L 12.890625 25.390625 
L 37.796875 25.390625 
z
M 35.203125 72.90625 
L 47.609375 72.90625 
L 47.609375 25.390625 
L 58.015625 25.390625 
L 58.015625 17.1875 
L 47.609375 17.1875 
L 47.609375 0 
L 37.796875 0 
L 37.796875 17.1875 
L 4.890625 17.1875 
L 4.890625 26.703125 
z
" id="DejaVuSans-52"/>
       </defs>
       <use xlink:href="#DejaVuSans-52"/>
       <use x="63.623047" xlink:href="#DejaVuSans-48"/>
       <use x="127.246094" xlink:href="#DejaVuSans-48"/>
       <use x="190.869141" xlink:href="#DejaVuSans-48"/>
      </g>
     </g>
    </g>
    <g id="ytick_6">
     <g id="line2d_57">
      <g>
       <use style="stroke:#000000;stroke-width:0.8;" x="59.135" xlink:href="#m75a29ec700" y="115.115818"/>
      </g>
     </g>
     <g id="text_58">
      <!-- 5000 -->
      <g transform="translate(26.685 118.915036)scale(0.1 -0.1)">
       <defs>
        <path d="M 10.796875 72.90625 
L 49.515625 72.90625 
L 49.515625 64.59375 
L 19.828125 64.59375 
L 19.828125 46.734375 
Q 21.96875 47.46875 24.109375 47.828125 
Q 26.265625 48.1875 28.421875 48.1875 
Q 40.625 48.1875 47.75 41.5 
Q 54.890625 34.8125 54.890625 23.390625 
Q 54.890625 11.625 47.5625 5.09375 
Q 40.234375 -1.421875 26.90625 -1.421875 
Q 22.3125 -1.421875 17.546875 -0.640625 
Q 12.796875 0.140625 7.71875 1.703125 
L 7.71875 11.625 
Q 12.109375 9.234375 16.796875 8.0625 
Q 21.484375 6.890625 26.703125 6.890625 
Q 35.15625 6.890625 40.078125 11.328125 
Q 45.015625 15.765625 45.015625 23.390625 
Q 45.015625 31 40.078125 35.4375 
Q 35.15625 39.890625 26.703125 39.890625 
Q 22.75 39.890625 18.8125 39.015625 
Q 14.890625 38.140625 10.796875 36.28125 
z
" id="DejaVuSans-53"/>
       </defs>
       <use xlink:href="#DejaVuSans-53"/>
       <use x="63.623047" xlink:href="#DejaVuSans-48"/>
       <use x="127.246094" xlink:href="#DejaVuSans-48"/>
       <use x="190.869141" xlink:href="#DejaVuSans-48"/>
      </g>
     </g>
    </g>
    <g id="ytick_7">
     <g id="line2d_58">
      <g>
       <use style="stroke:#000000;stroke-width:0.8;" x="59.135" xlink:href="#m75a29ec700" y="60.594981"/>
      </g>
     </g>
     <g id="text_59">
      <!-- 6000 -->
      <g transform="translate(26.685 64.3942)scale(0.1 -0.1)">
       <defs>
        <path d="M 33.015625 40.375 
Q 26.375 40.375 22.484375 35.828125 
Q 18.609375 31.296875 18.609375 23.390625 
Q 18.609375 15.53125 22.484375 10.953125 
Q 26.375 6.390625 33.015625 6.390625 
Q 39.65625 6.390625 43.53125 10.953125 
Q 47.40625 15.53125 47.40625 23.390625 
Q 47.40625 31.296875 43.53125 35.828125 
Q 39.65625 40.375 33.015625 40.375 
z
M 52.59375 71.296875 
L 52.59375 62.3125 
Q 48.875 64.0625 45.09375 64.984375 
Q 41.3125 65.921875 37.59375 65.921875 
Q 27.828125 65.921875 22.671875 59.328125 
Q 17.53125 52.734375 16.796875 39.40625 
Q 19.671875 43.65625 24.015625 45.921875 
Q 28.375 48.1875 33.59375 48.1875 
Q 44.578125 48.1875 50.953125 41.515625 
Q 57.328125 34.859375 57.328125 23.390625 
Q 57.328125 12.15625 50.6875 5.359375 
Q 44.046875 -1.421875 33.015625 -1.421875 
Q 20.359375 -1.421875 13.671875 8.265625 
Q 6.984375 17.96875 6.984375 36.375 
Q 6.984375 53.65625 15.1875 63.9375 
Q 23.390625 74.21875 37.203125 74.21875 
Q 40.921875 74.21875 44.703125 73.484375 
Q 48.484375 72.75 52.59375 71.296875 
z
" id="DejaVuSans-54"/>
       </defs>
       <use xlink:href="#DejaVuSans-54"/>
       <use x="63.623047" xlink:href="#DejaVuSans-48"/>
       <use x="127.246094" xlink:href="#DejaVuSans-48"/>
       <use x="190.869141" xlink:href="#DejaVuSans-48"/>
      </g>
     </g>
    </g>
    <g id="text_60">
     <!-- number of inventors -->
     <g transform="translate(19.3575 278.98625)rotate(-90)scale(0.16 -0.16)">
      <use xlink:href="#DejaVuSans-110"/>
      <use x="63.378906" xlink:href="#DejaVuSans-117"/>
      <use x="126.757812" xlink:href="#DejaVuSans-109"/>
      <use x="224.169922" xlink:href="#DejaVuSans-98"/>
      <use x="287.646484" xlink:href="#DejaVuSans-101"/>
      <use x="349.169922" xlink:href="#DejaVuSans-114"/>
      <use x="390.283203" xlink:href="#DejaVuSans-32"/>
      <use x="422.070312" xlink:href="#DejaVuSans-111"/>
      <use x="483.251953" xlink:href="#DejaVuSans-102"/>
      <use x="518.457031" xlink:href="#DejaVuSans-32"/>
      <use x="550.244141" xlink:href="#DejaVuSans-105"/>
      <use x="578.027344" xlink:href="#DejaVuSans-110"/>
      <use x="641.40625" xlink:href="#DejaVuSans-118"/>
      <use x="700.585938" xlink:href="#DejaVuSans-101"/>
      <use x="762.109375" xlink:href="#DejaVuSans-110"/>
      <use x="825.488281" xlink:href="#DejaVuSans-116"/>
      <use x="864.697266" xlink:href="#DejaVuSans-111"/>
      <use x="925.878906" xlink:href="#DejaVuSans-114"/>
      <use x="966.992188" xlink:href="#DejaVuSans-115"/>
     </g>
    </g>
   </g>
   <g id="patch_105">
    <path d="M 59.135 387.72 
L 59.135 7.2 
" style="fill:none;stroke:#000000;stroke-linecap:square;stroke-linejoin:miter;stroke-width:0.8;"/>
   </g>
   <g id="patch_106">
    <path d="M 59.135 387.72 
L 728.735 387.72 
" style="fill:none;stroke:#000000;stroke-linecap:square;stroke-linejoin:miter;stroke-width:0.8;"/>
   </g>
   <g id="legend_1">
    <g id="patch_107">
     <path d="M 68.135 23.798437 
L 88.135 23.798437 
L 88.135 16.798437 
L 68.135 16.798437 
z
" style="fill:#1f77b4;"/>
    </g>
    <g id="text_61">
     <!-- male -->
     <g transform="translate(96.135 23.798437)scale(0.1 -0.1)">
      <use xlink:href="#DejaVuSans-109"/>
      <use x="97.412109" xlink:href="#DejaVuSans-97"/>
      <use x="158.691406" xlink:href="#DejaVuSans-108"/>
      <use x="186.474609" xlink:href="#DejaVuSans-101"/>
     </g>
    </g>
    <g id="patch_108">
     <path d="M 68.135 38.476562 
L 88.135 38.476562 
L 88.135 31.476562 
L 68.135 31.476562 
z
" style="fill:#ff7f0e;"/>
    </g>
    <g id="text_62">
     <!-- female -->
     <g transform="translate(96.135 38.476562)scale(0.1 -0.1)">
      <use xlink:href="#DejaVuSans-102"/>
      <use x="35.205078" xlink:href="#DejaVuSans-101"/>
      <use x="96.728516" xlink:href="#DejaVuSans-109"/>
      <use x="194.140625" xlink:href="#DejaVuSans-97"/>
      <use x="255.419922" xlink:href="#DejaVuSans-108"/>
      <use x="283.203125" xlink:href="#DejaVuSans-101"/>
     </g>
    </g>
   </g>
  </g>
 </g>
 <defs>
  <clipPath id="pd6d642a842">
   <rect height="380.52" width="669.6" x="59.135" y="7.2"/>
  </clipPath>
 </defs>
</svg>
